<svg xmlns="http://www.w3.org/2000/svg" xmlns:xlink="http://www.w3.org/1999/xlink" width="500" zoomAndPan="magnify" viewBox="0 0 375 374.999991" height="500" preserveAspectRatio="xMidYMid meet" version="1.0"><defs><clipPath id="727a9a9dce"><path d="M 37.5 37.5 L 345 37.5 L 345 319.5 L 37.5 319.5 Z M 37.5 37.5 " clip-rule="nonzero"/></clipPath></defs><rect x="-37.5" width="450" fill="#ffffff" y="-37.499999" height="449.999989" fill-opacity="1"/><rect x="-37.5" width="450" fill="#ffffff" y="-37.499999" height="449.999989" fill-opacity="1"/><rect x="-37.5" width="450" fill="#ffffff" y="-37.499999" height="449.999989" fill-opacity="1"/><g clip-path="url(#727a9a9dce)"><path fill="#ff7bac" d="M 191.25 37.5 C 152.414062 37.5 120.8125 69.128906 120.8125 108 C 120.8125 146.871094 152.414062 178.5 191.25 178.5 C 230.085938 178.5 261.6875 146.871094 261.6875 108 C 261.6875 69.128906 230.085938 37.5 191.25 37.5 Z M 191.25 50.316406 C 223.03125 50.316406 248.878906 76.191406 248.878906 108 C 248.878906 139.808594 223.03125 165.683594 191.25 165.683594 C 159.46875 165.683594 133.621094 139.808594 133.621094 108 C 133.621094 76.191406 159.46875 50.316406 191.25 50.316406 Z M 190.199219 75.878906 L 174.355469 86.984375 L 174.355469 97.410156 L 189.4375 86.808594 L 190.160156 86.808594 L 190.160156 136.554688 L 200.992188 136.554688 L 200.992188 75.878906 Z M 108.007812 178.5 C 69.171875 178.5 37.570312 210.121094 37.570312 249 C 37.570312 287.878906 69.171875 319.5 108.007812 319.5 C 146.84375 319.5 178.441406 287.871094 178.441406 249 C 178.441406 210.128906 146.84375 178.5 108.007812 178.5 Z M 274.492188 178.5 C 235.65625 178.5 204.058594 210.128906 204.058594 249 C 204.058594 287.871094 235.65625 319.5 274.492188 319.5 C 313.328125 319.5 344.929688 287.871094 344.929688 249 C 344.929688 210.128906 313.328125 178.5 274.492188 178.5 Z M 108.007812 191.316406 C 139.785156 191.316406 165.636719 217.191406 165.636719 249 C 165.636719 280.808594 139.785156 306.683594 108.007812 306.683594 C 76.226562 306.683594 50.375 280.808594 50.375 249 C 50.375 217.191406 76.226562 191.316406 108.007812 191.316406 Z M 274.492188 191.316406 C 306.273438 191.316406 332.125 217.191406 332.125 249 C 332.125 280.808594 306.273438 306.683594 274.492188 306.683594 C 242.714844 306.683594 216.863281 280.808594 216.863281 249 C 216.863281 217.191406 242.714844 191.316406 274.492188 191.316406 Z M 276.21875 207.367188 C 259.789062 207.367188 250.777344 216.886719 250.34375 229.996094 L 263.335938 229.996094 C 263.78125 223.25 268.375 218.933594 275.507812 218.933594 C 282.46875 218.933594 287.113281 223.089844 287.113281 228.847656 C 287.113281 234.324219 284.785156 237.253906 277.933594 241.402344 C 270.300781 245.886719 267.089844 250.878906 267.589844 259.175781 L 267.652344 262.933594 L 280.484375 262.933594 L 280.484375 259.777344 C 280.484375 254.296875 282.523438 251.484375 289.765625 247.222656 C 297.289062 242.734375 301.496094 236.8125 301.496094 228.34375 C 301.496094 216.117188 291.371094 207.367188 276.21875 207.367188 Z M 106.429688 215.363281 C 93.996094 215.363281 85.28125 223.265625 85.28125 234.605469 L 85.28125 234.765625 L 95.449219 234.765625 L 95.449219 234.605469 C 95.449219 228.425781 99.742188 224.265625 106.082031 224.265625 C 112.042969 224.265625 116.421875 228.132812 116.421875 233.476562 C 116.421875 237.765625 114.359375 240.921875 106.082031 249.339844 L 85.882812 270.015625 L 85.882812 277.554688 L 127.980469 277.554688 L 127.980469 268.339844 L 100.753906 268.339844 L 100.753906 267.625 L 113.445312 254.894531 C 123.738281 244.71875 127.054688 239.339844 127.054688 232.816406 C 127.054688 222.683594 118.40625 215.363281 106.429688 215.363281 Z M 274.667969 271.683594 C 269.136719 271.683594 265.488281 275.175781 265.488281 280.542969 C 265.488281 285.859375 269.136719 289.34375 274.667969 289.34375 C 280.308594 289.34375 283.859375 285.859375 283.859375 280.542969 C 283.859375 275.175781 280.308594 271.683594 274.667969 271.683594 Z M 274.667969 271.683594 " fill-opacity="1" fill-rule="nonzero"/></g></svg>