<svg xmlns="http://www.w3.org/2000/svg" xmlns:xlink="http://www.w3.org/1999/xlink" width="500" zoomAndPan="magnify" viewBox="0 0 375 374.999991" height="500" preserveAspectRatio="xMidYMid meet" version="1.0"><defs><clipPath id="397fae08f0"><path d="M 46 37.5 L 328 37.5 L 328 319 L 46 319 Z M 46 37.5 " clip-rule="nonzero"/></clipPath></defs><rect x="-37.5" width="450" fill="#ffffff" y="-37.499999" height="449.999989" fill-opacity="1"/><rect x="-37.5" width="450" fill="#ffffff" y="-37.499999" height="449.999989" fill-opacity="1"/><rect x="-37.5" width="450" fill="#ffffff" y="-37.499999" height="449.999989" fill-opacity="1"/><g clip-path="url(#397fae08f0)"><path fill="#ff7bac" d="M 308.648438 108.625 C 308.550781 108.425781 300.875 115.339844 300.875 115.339844 C 299.371094 117 297.613281 118.324219 295.605469 119.320312 C 293.59375 120.316406 291.472656 120.90625 289.238281 121.097656 L 264.308594 123.152344 C 264.714844 123.46875 265.066406 123.835938 265.363281 124.253906 C 308.511719 185.828125 261.878906 273.917969 186.515625 272.917969 C 60.101562 267.71875 60.101562 87.773438 186.515625 82.578125 C 191.292969 82.578125 196.042969 82.929688 200.769531 83.636719 C 205.492188 84.347656 210.140625 85.402344 214.703125 86.808594 C 219.269531 88.214844 223.703125 89.949219 228.007812 92.019531 C 232.3125 94.089844 236.4375 96.46875 240.386719 99.160156 C 241.675781 100.101562 243.292969 75.167969 243.292969 75.167969 C 243.457031 73.109375 243.96875 71.140625 244.832031 69.261719 C 245.691406 67.382812 246.851562 65.714844 248.308594 64.246094 L 256.484375 56.082031 C 251.1875 53.042969 245.710938 50.359375 240.058594 48.035156 C 234.410156 45.710938 228.628906 43.765625 222.722656 42.199219 C 216.816406 40.628906 210.835938 39.453125 204.773438 38.664062 C 198.714844 37.878906 192.628906 37.492188 186.515625 37.5 C 0.238281 45.175781 0.21875 310.316406 186.515625 317.996094 C 292.519531 319.328125 362.21875 199.90625 308.648438 108.625 Z M 308.648438 108.625 " fill-opacity="1" fill-rule="nonzero"/></g><path fill="#ff7bac" d="M 207.28125 132.21875 L 233.113281 106.421875 C 177.808594 69.296875 100.390625 111.148438 101.25 177.75 C 105.957031 290.703125 267.085938 290.679688 271.785156 177.746094 C 271.792969 173.636719 271.503906 169.546875 270.917969 165.480469 C 270.332031 161.414062 269.449219 157.410156 268.277344 153.46875 C 267.105469 149.527344 265.652344 145.695312 263.921875 141.964844 C 262.191406 138.238281 260.195312 134.652344 257.941406 131.214844 L 232.058594 157.011719 C 233.632812 160.238281 234.808594 163.605469 235.589844 167.109375 C 236.371094 170.613281 236.730469 174.160156 236.671875 177.75 C 233.863281 244.195312 139.167969 244.199219 136.359375 177.75 C 135.578125 142.203125 175.265625 116.621094 207.28125 132.21875 Z M 207.28125 132.21875 " fill-opacity="1" fill-rule="nonzero"/><path fill="#ff7bac" d="M 199.605469 139.882812 C 198.277344 139.421875 196.925781 139.035156 195.554688 138.71875 C 194.183594 138.402344 192.800781 138.160156 191.40625 137.988281 C 190.007812 137.816406 188.609375 137.71875 187.199219 137.695312 C 185.792969 137.671875 184.390625 137.722656 182.988281 137.847656 C 181.585938 137.96875 180.195312 138.167969 178.816406 138.4375 C 177.4375 138.707031 176.074219 139.046875 174.726562 139.460938 C 173.382812 139.875 172.066406 140.355469 170.769531 140.90625 C 169.476562 141.460938 168.214844 142.078125 166.988281 142.761719 C 165.757812 143.445312 164.570312 144.191406 163.417969 145 C 162.269531 145.808594 161.164062 146.675781 160.105469 147.601562 C 159.046875 148.527344 158.039062 149.503906 157.082031 150.535156 C 156.128906 151.566406 155.230469 152.644531 154.386719 153.769531 C 153.542969 154.894531 152.761719 156.0625 152.042969 157.269531 C 151.324219 158.476562 150.671875 159.71875 150.082031 160.996094 C 149.492188 162.269531 148.972656 163.574219 148.523438 164.90625 C 148.070312 166.234375 147.691406 167.585938 147.382812 168.957031 C 147.074219 170.328125 146.835938 171.710938 146.675781 173.105469 C 146.511719 174.5 146.421875 175.902344 146.40625 177.304688 C 146.390625 178.710938 146.449219 180.113281 146.578125 181.511719 C 146.710938 182.910156 146.917969 184.296875 147.195312 185.675781 C 147.472656 187.050781 147.820312 188.410156 148.242188 189.75 C 148.664062 191.089844 149.15625 192.40625 149.714844 193.695312 C 150.273438 194.984375 150.898438 196.238281 151.59375 197.464844 C 152.285156 198.6875 153.039062 199.871094 153.855469 201.011719 C 154.671875 202.15625 155.546875 203.253906 156.480469 204.308594 C 157.410156 205.359375 158.394531 206.359375 159.433594 207.308594 C 160.472656 208.257812 161.554688 209.148438 162.6875 209.984375 C 163.820312 210.816406 164.992188 211.589844 166.207031 212.300781 C 167.417969 213.015625 168.664062 213.660156 169.945312 214.238281 C 171.226562 214.820312 172.535156 215.332031 173.871094 215.773438 C 175.207031 216.21875 176.558594 216.589844 177.933594 216.890625 C 179.308594 217.191406 180.695312 217.417969 182.09375 217.574219 C 183.492188 217.730469 184.894531 217.8125 186.300781 217.820312 C 187.707031 217.828125 189.109375 217.761719 190.511719 217.621094 C 191.910156 217.480469 193.300781 217.269531 194.675781 216.984375 C 196.054688 216.699219 197.414062 216.339844 198.753906 215.914062 C 200.09375 215.484375 201.40625 214.988281 202.695312 214.421875 C 203.980469 213.855469 205.234375 213.222656 206.457031 212.523438 C 207.675781 211.828125 208.859375 211.066406 210 210.246094 C 211.140625 209.421875 212.234375 208.542969 213.28125 207.605469 C 214.332031 206.667969 215.324219 205.679688 216.269531 204.636719 C 217.214844 203.597656 218.101562 202.507812 218.929688 201.371094 C 219.757812 200.238281 220.527344 199.0625 221.230469 197.847656 C 221.9375 196.632812 222.578125 195.382812 223.152344 194.101562 C 223.726562 192.816406 224.230469 191.507812 224.667969 190.171875 C 225.101562 188.835938 225.46875 187.480469 225.761719 186.109375 C 226.054688 184.734375 226.273438 183.347656 226.421875 181.953125 C 226.570312 180.554688 226.640625 179.152344 226.640625 177.75 C 226.652344 173.25 225.917969 168.875 224.433594 164.625 L 198.90625 190.121094 C 198.5 190.527344 198.074219 190.914062 197.628906 191.277344 C 197.1875 191.640625 196.726562 191.984375 196.25 192.304688 C 195.773438 192.621094 195.28125 192.917969 194.773438 193.1875 C 194.269531 193.460938 193.75 193.707031 193.21875 193.925781 C 192.6875 194.148438 192.148438 194.339844 191.597656 194.507812 C 191.046875 194.675781 190.492188 194.816406 189.929688 194.929688 C 189.367188 195.039062 188.796875 195.125 188.226562 195.183594 C 187.65625 195.238281 187.082031 195.269531 186.507812 195.269531 C 185.933594 195.269531 185.359375 195.242188 184.785156 195.1875 C 184.214844 195.132812 183.648438 195.046875 183.082031 194.9375 C 182.519531 194.824219 181.964844 194.6875 181.414062 194.519531 C 180.863281 194.355469 180.324219 194.164062 179.792969 193.945312 C 179.261719 193.722656 178.742188 193.480469 178.234375 193.210938 C 177.726562 192.941406 177.234375 192.644531 176.757812 192.328125 C 176.277344 192.007812 175.816406 191.667969 175.371094 191.304688 C 174.929688 190.941406 174.503906 190.558594 174.097656 190.152344 C 173.6875 189.746094 173.304688 189.320312 172.9375 188.878906 C 172.574219 188.4375 172.230469 187.976562 171.910156 187.5 C 171.589844 187.023438 171.296875 186.53125 171.023438 186.023438 C 170.753906 185.519531 170.507812 185 170.289062 184.472656 C 170.066406 183.941406 169.875 183.402344 169.707031 182.851562 C 169.539062 182.304688 169.398438 181.75 169.285156 181.1875 C 169.171875 180.625 169.089844 180.054688 169.03125 179.484375 C 168.976562 178.914062 168.945312 178.34375 168.945312 177.769531 C 168.945312 177.195312 168.972656 176.621094 169.03125 176.050781 C 169.085938 175.480469 169.167969 174.914062 169.28125 174.351562 C 169.390625 173.789062 169.53125 173.230469 169.699219 172.683594 C 169.863281 172.132812 170.058594 171.59375 170.277344 171.0625 C 170.496094 170.53125 170.742188 170.015625 171.011719 169.507812 C 171.28125 169 171.578125 168.511719 171.894531 168.03125 C 172.214844 167.554688 172.558594 167.09375 172.921875 166.652344 C 173.285156 166.207031 173.671875 165.78125 174.078125 165.375 Z M 199.605469 139.882812 " fill-opacity="1" fill-rule="nonzero"/><path fill="#ff7bac" d="M 253.476562 103.765625 C 251.335938 105.890625 199 158.207031 182.953125 174.191406 C 182.730469 174.425781 182.527344 174.683594 182.351562 174.957031 C 182.175781 175.230469 182.03125 175.519531 181.910156 175.824219 C 181.789062 176.125 181.699219 176.4375 181.640625 176.757812 C 181.582031 177.078125 181.554688 177.398438 181.558594 177.726562 C 181.5625 178.050781 181.597656 178.375 181.664062 178.691406 C 181.730469 179.011719 181.824219 179.320312 181.953125 179.621094 C 182.078125 179.921875 182.234375 180.207031 182.414062 180.476562 C 182.597656 180.746094 182.804688 180.996094 183.035156 181.226562 C 183.265625 181.457031 183.515625 181.664062 183.785156 181.84375 C 184.054688 182.027344 184.339844 182.179688 184.640625 182.304688 C 184.941406 182.433594 185.253906 182.527344 185.570312 182.59375 C 185.890625 182.660156 186.214844 182.695312 186.539062 182.699219 C 186.867188 182.703125 187.1875 182.675781 187.507812 182.617188 C 187.832031 182.558594 188.140625 182.46875 188.445312 182.347656 C 188.75 182.230469 189.039062 182.082031 189.3125 181.90625 C 189.585938 181.730469 189.84375 181.53125 190.078125 181.304688 C 197.707031 173.695312 254.691406 116.769531 260.597656 110.878906 C 263.78125 110.625 289.679688 109.339844 291.394531 107.171875 L 317.578125 80.976562 C 317.90625 80.644531 318.183594 80.273438 318.410156 79.863281 C 318.632812 79.453125 318.800781 79.023438 318.902344 78.566406 C 319.003906 78.109375 319.042969 77.648438 319.015625 77.183594 C 318.992188 76.714844 318.902344 76.261719 318.746094 75.820312 C 318.59375 75.378906 318.378906 74.96875 318.109375 74.585938 C 317.839844 74.207031 317.523438 73.867188 317.15625 73.574219 C 316.792969 73.28125 316.394531 73.046875 315.960938 72.867188 C 315.53125 72.683594 315.082031 72.566406 314.617188 72.511719 C 314.21875 72.410156 296.613281 74.917969 296.613281 74.917969 L 301.777344 69.757812 L 301.878906 69.65625 L 301.878906 69.605469 C 302.09375 69.367188 302.285156 69.109375 302.449219 68.832031 C 302.613281 68.558594 302.753906 68.269531 302.863281 67.964844 C 302.972656 67.664062 303.050781 67.355469 303.101562 67.035156 C 303.152344 66.71875 303.171875 66.398438 303.160156 66.078125 C 303.148438 65.753906 303.105469 65.4375 303.035156 65.125 C 302.960938 64.8125 302.859375 64.507812 302.726562 64.214844 C 302.597656 63.917969 302.4375 63.640625 302.253906 63.378906 C 302.070312 63.113281 301.859375 62.871094 301.628906 62.648438 C 301.398438 62.425781 301.144531 62.226562 300.875 62.050781 C 300.605469 61.875 300.320312 61.726562 300.023438 61.605469 C 299.722656 61.484375 299.417969 61.394531 299.101562 61.332031 C 298.785156 61.273438 298.464844 61.242188 298.144531 61.242188 C 297.820312 61.242188 297.5 61.269531 297.183594 61.332031 C 296.867188 61.394531 296.5625 61.484375 296.261719 61.605469 C 295.964844 61.726562 295.679688 61.871094 295.410156 62.046875 C 295.140625 62.222656 294.886719 62.421875 294.65625 62.644531 L 289.441406 67.855469 C 289.441406 67.855469 292.269531 49.722656 291.898438 49.820312 C 291.839844 49.359375 291.722656 48.914062 291.539062 48.484375 C 291.355469 48.054688 291.121094 47.65625 290.828125 47.292969 C 290.535156 46.929688 290.195312 46.613281 289.8125 46.34375 C 289.433594 46.074219 289.019531 45.863281 288.578125 45.710938 C 288.136719 45.558594 287.683594 45.464844 287.21875 45.441406 C 286.75 45.414062 286.289062 45.449219 285.835938 45.554688 C 285.378906 45.65625 284.945312 45.816406 284.535156 46.039062 C 284.125 46.265625 283.753906 46.539062 283.421875 46.867188 C 278.421875 51.855469 255.746094 73.816406 255.785156 76.167969 C 255.785156 76.167969 253.738281 100.625 253.476562 103.765625 Z M 253.476562 103.765625 " fill-opacity="1" fill-rule="nonzero"/></svg>