<svg xmlns="http://www.w3.org/2000/svg" xmlns:xlink="http://www.w3.org/1999/xlink" width="500" zoomAndPan="magnify" viewBox="0 0 375 374.999991" height="500" preserveAspectRatio="xMidYMid meet" version="1.0"><defs><clipPath id="2394074a36"><path d="M 191 46.476562 L 337.636719 46.476562 L 337.636719 346.476562 L 191 346.476562 Z M 191 46.476562 " clip-rule="nonzero"/></clipPath><clipPath id="ce4d709298"><path d="M 245 339 L 280 339 L 280 346.476562 L 245 346.476562 Z M 245 339 " clip-rule="nonzero"/></clipPath><clipPath id="7cc100bb92"><path d="M 39.136719 49 L 192 49 L 192 340 L 39.136719 340 Z M 39.136719 49 " clip-rule="nonzero"/></clipPath><clipPath id="5844eecd3d"><path d="M 39.136719 46.476562 L 321 46.476562 L 321 324 L 39.136719 324 Z M 39.136719 46.476562 " clip-rule="nonzero"/></clipPath><clipPath id="61f275a5c2"><path d="M 44 96 L 337.636719 96 L 337.636719 335 L 44 335 Z M 44 96 " clip-rule="nonzero"/></clipPath><clipPath id="1424c21cdf"><path d="M 245 339 L 280 339 L 280 346.476562 L 245 346.476562 Z M 245 339 " clip-rule="nonzero"/></clipPath><clipPath id="3a1cf2f9e9"><path d="M 300 329 L 326 329 L 326 346.476562 L 300 346.476562 Z M 300 329 " clip-rule="nonzero"/></clipPath></defs><rect x="-37.5" width="450" fill="#ffffff" y="-37.499999" height="449.999989" fill-opacity="1"/><rect x="-37.5" width="450" fill="#ffffff" y="-37.499999" height="449.999989" fill-opacity="1"/><rect x="-37.5" width="450" fill="#f5f5ff" y="-37.499999" height="449.999989" fill-opacity="1"/><path fill="#78a0ff" d="M 233.359375 275.609375 C 233.34375 273.378906 233.152344 271.132812 232.8125 268.886719 L 247.105469 268.886719 C 249.117188 268.886719 250.75 267.253906 250.75 265.242188 L 250.75 248.066406 C 249.660156 248.519531 248.46875 248.777344 247.214844 248.777344 C 242.09375 248.777344 237.945312 244.628906 237.945312 239.511719 C 237.945312 234.398438 242.09375 230.25 247.214844 230.25 C 248.46875 230.25 249.660156 230.507812 250.75 230.960938 L 250.75 214.628906 C 250.75 212.617188 249.117188 210.984375 247.105469 210.984375 L 229.605469 210.984375 C 230.300781 209.683594 230.699219 208.195312 230.699219 206.617188 C 230.699219 201.5 226.546875 197.355469 221.429688 197.355469 C 216.308594 197.355469 212.160156 201.5 212.160156 206.617188 C 212.160156 208.195312 212.558594 209.683594 213.253906 210.984375 L 196.46875 210.984375 C 194.453125 210.984375 192.820312 212.617188 192.820312 214.628906 L 192.820312 236.78125 C 191.199219 236.472656 189.558594 236.25 187.898438 236.152344 L 185.046875 228.035156 C 183.199219 228.046875 181.34375 228.183594 179.484375 228.417969 L 179.484375 202.554688 C 179.484375 200.542969 177.847656 198.910156 175.835938 198.910156 L 158.335938 198.910156 C 159.03125 197.609375 159.429688 196.121094 159.429688 194.542969 C 159.429688 189.425781 155.28125 185.28125 150.160156 185.28125 C 145.042969 185.28125 140.890625 189.425781 140.890625 194.542969 C 140.890625 196.121094 141.289062 197.609375 141.984375 198.910156 L 125.199219 198.910156 C 123.183594 198.910156 121.550781 200.542969 121.550781 202.554688 L 121.550781 253.167969 C 121.550781 255.179688 123.183594 256.8125 125.199219 256.8125 L 141.476562 256.8125 C 141.058594 257.765625 140.664062 258.730469 140.308594 259.710938 L 147.007812 265.089844 C 146.230469 267.8125 145.742188 270.617188 145.570312 273.476562 L 137.453125 276.324219 C 137.46875 279.015625 137.730469 281.722656 138.21875 284.429688 L 146.703125 285.730469 C 147.046875 287.101562 147.464844 288.453125 147.964844 289.808594 C 148.464844 291.15625 149.03125 292.457031 149.65625 293.722656 L 144.0625 300.230469 C 145.453125 302.601562 147.019531 304.828125 148.753906 306.878906 L 156.777344 303.765625 C 158.769531 305.824219 160.964844 307.640625 163.328125 309.207031 L 161.742188 317.640625 C 164.105469 318.980469 166.582031 320.117188 169.140625 321.042969 L 174.515625 314.351562 C 177.246094 315.125 180.054688 315.613281 182.914062 315.785156 L 185.765625 323.898438 C 188.453125 323.882812 191.160156 323.621094 193.871094 323.132812 L 195.171875 314.65625 C 196.542969 314.308594 197.898438 313.890625 199.246094 313.394531 C 200.601562 312.890625 201.902344 312.328125 203.167969 311.699219 L 209.675781 317.292969 C 212.050781 315.902344 214.277344 314.335938 216.332031 312.601562 L 213.214844 304.585938 C 215.273438 302.59375 217.089844 300.398438 218.652344 298.035156 L 227.097656 299.621094 C 228.4375 297.257812 229.578125 294.78125 230.5 292.226562 L 223.804688 286.851562 C 224.574219 284.125 225.066406 281.316406 225.242188 278.457031 Z M 192.558594 295.320312 C 181.875 299.269531 169.996094 293.808594 166.046875 283.125 C 162.09375 272.4375 167.558594 260.566406 178.242188 256.617188 C 183.144531 254.804688 188.296875 254.976562 192.820312 256.722656 L 192.820312 265.242188 C 192.820312 267.253906 194.453125 268.886719 196.46875 268.886719 L 204.789062 268.886719 C 208.691406 279.550781 203.230469 291.375 192.558594 295.320312 Z M 192.558594 295.320312 " fill-opacity="1" fill-rule="nonzero"/><g clip-path="url(#2394074a36)"><path fill="#78a0ff" d="M 337.546875 227.722656 C 337.546875 227.714844 337.550781 227.707031 337.550781 227.699219 C 337.53125 227.179688 337.402344 225.800781 337.230469 224.078125 L 337.230469 224.074219 C 336.777344 219.539062 336.007812 212.609375 336.007812 212.605469 L 332.898438 184.808594 L 334.097656 184.570312 C 332.757812 171.289062 332.34375 155.578125 332.109375 152.472656 C 331.789062 148.804688 331.484375 145.136719 331.027344 141.480469 C 330.59375 138.035156 328.394531 135.25 325.453125 133.894531 C 325.457031 133.871094 325.460938 133.851562 325.460938 133.851562 C 318.644531 130.910156 311.988281 128.964844 305.390625 128.019531 L 305.5 129.476562 L 304.554688 116.933594 L 304.578125 117.285156 C 306.449219 116.957031 313.820312 115.234375 312.984375 108.542969 C 312.984375 108.542969 318.789062 101.882812 313.027344 96.699219 C 313.09375 90.679688 309.847656 87.757812 303.796875 87.464844 C 303.796875 87.464844 292.808594 86.53125 288.34375 86.203125 C 288.761719 84.96875 289.09375 83.699219 289.316406 82.398438 L 294.800781 81.136719 C 294.984375 79.390625 295.011719 77.609375 294.890625 75.816406 L 289.472656 74.355469 C 289.347656 73.4375 289.175781 72.527344 288.949219 71.617188 C 288.722656 70.699219 288.449219 69.8125 288.132812 68.945312 L 292.242188 65.125 C 291.507812 63.480469 290.65625 61.921875 289.675781 60.460938 L 284.234375 61.902344 C 283.089844 60.421875 281.792969 59.082031 280.375 57.894531 L 282.019531 52.523438 C 280.578125 51.480469 279.050781 50.5625 277.457031 49.773438 L 273.472656 53.734375 C 271.761719 53.035156 269.96875 52.511719 268.125 52.191406 L 266.859375 46.710938 C 265.109375 46.527344 263.332031 46.5 261.535156 46.621094 L 260.074219 52.035156 C 259.15625 52.164062 258.246094 52.335938 257.328125 52.5625 C 256.417969 52.789062 255.53125 53.0625 254.664062 53.378906 L 250.839844 49.269531 C 249.195312 50 247.632812 50.855469 246.175781 51.835938 L 247.617188 57.269531 C 246.132812 58.414062 244.792969 59.714844 243.601562 61.132812 L 238.234375 59.488281 C 237.191406 60.925781 236.269531 62.453125 235.484375 64.046875 L 239.445312 68.03125 C 238.742188 69.742188 238.222656 71.53125 237.902344 73.375 L 232.417969 74.636719 C 232.234375 76.386719 232.207031 78.164062 232.328125 79.960938 L 237.746094 81.421875 C 237.875 82.335938 238.046875 83.246094 238.273438 84.164062 C 238.5 85.078125 238.773438 85.960938 239.085938 86.832031 L 237.261719 88.527344 L 229.746094 88.527344 C 230.425781 89.808594 230.816406 91.265625 230.816406 92.820312 C 230.816406 97.878906 226.714844 101.980469 221.652344 101.980469 C 216.589844 101.980469 212.484375 97.878906 212.484375 92.820312 C 212.484375 91.269531 212.875 89.808594 213.558594 88.527344 L 195.082031 88.527344 C 193.078125 88.527344 191.457031 90.148438 191.457031 92.148438 L 191.457031 108.84375 C 192.773438 108.324219 194.238281 108.089844 195.777344 108.257812 C 200.226562 108.738281 203.730469 112.5 203.886719 116.964844 C 204.070312 122.136719 199.929688 126.386719 194.796875 126.386719 C 193.617188 126.386719 192.492188 126.15625 191.457031 125.746094 L 191.457031 142.441406 C 191.457031 144.441406 193.078125 146.066406 195.082031 146.066406 L 201.691406 146.066406 C 201.636719 146.730469 202.101562 147.347656 203.15625 147.503906 C 203.507812 147.558594 203.949219 147.609375 204.449219 147.65625 C 204.078125 148.402344 204.351562 149.183594 205.433594 149.308594 C 205.90625 149.363281 206.613281 149.4375 207.453125 149.527344 C 207.65625 149.808594 207.964844 150.046875 208.398438 150.175781 C 210.3125 150.753906 213.972656 151.5625 215.382812 151.871094 C 215.761719 151.953125 216.140625 152.007812 216.527344 152.039062 C 216.527344 152.039062 223.882812 152.652344 224.988281 152.707031 L 225.011719 152.710938 C 225.265625 152.722656 225.519531 152.730469 225.777344 152.734375 L 241.449219 181.074219 C 244.109375 185.445312 249.808594 186.832031 254.183594 184.171875 C 254.929688 183.71875 258.074219 180.5 261.277344 177.132812 L 264.574219 181.75 L 269.984375 169.539062 L 270.125 171.050781 C 270.144531 171.234375 270.296875 171.371094 270.476562 171.371094 C 270.488281 171.371094 270.5 171.371094 270.511719 171.371094 C 270.53125 171.371094 270.542969 171.359375 270.5625 171.355469 C 270.839844 175.097656 271.011719 178.226562 271.011719 180.152344 C 271.011719 187.355469 269.917969 200.050781 269.917969 205.328125 C 269.917969 206.234375 270.351562 207.042969 271.027344 207.570312 L 270.8125 213.363281 C 270.835938 213.359375 270.859375 213.347656 270.882812 213.347656 C 270.648438 213.347656 270.460938 213.535156 270.460938 213.769531 C 270.460938 214.003906 270.648438 214.191406 270.882812 214.191406 C 270.847656 214.191406 270.816406 214.179688 270.785156 214.171875 L 268.914062 265.09375 L 266.464844 322.515625 L 266.84375 322.515625 C 266.566406 326.003906 266.054688 328.355469 265.277344 330.320312 C 269.09375 335.355469 274.089844 334.960938 277.417969 333.640625 C 274.089844 334.960938 269.09375 335.355469 265.277344 330.320312 C 262.789062 333.429688 256.269531 337.386719 251.214844 339.839844 L 253.410156 343.265625 L 279.746094 343.265625 C 279.808594 340.558594 279.652344 336.605469 278.53125 333.148438 C 278.511719 329.886719 278.96875 325.519531 279.339844 322.515625 L 280.78125 322.515625 C 283.898438 312.179688 291.132812 286.691406 287.601562 268.378906 L 295.320312 216.09375 L 290.726562 215.804688 L 297.230469 216.214844 C 297.242188 216.214844 297.25 216.214844 297.257812 216.214844 C 297.261719 216.214844 297.265625 216.214844 297.269531 216.214844 L 300.519531 322.515625 L 301.320312 322.515625 C 301.3125 322.738281 301.300781 322.953125 301.300781 323.183594 C 301.300781 327.261719 301.0625 330.382812 300.863281 334.726562 C 300.851562 335.050781 300.835938 335.386719 300.820312 335.726562 C 300.816406 335.851562 300.8125 335.984375 300.804688 336.113281 C 300.796875 336.304688 300.789062 336.496094 300.785156 336.695312 C 300.777344 336.90625 300.769531 337.121094 300.761719 337.335938 C 300.757812 337.460938 300.75 337.585938 300.746094 337.714844 C 300.738281 337.972656 300.730469 338.234375 300.722656 338.5 C 300.71875 338.578125 300.71875 338.65625 300.714844 338.730469 C 300.660156 340.625 300.621094 342.75 300.609375 345.234375 C 300.605469 345.9375 301.175781 346.511719 301.878906 346.511719 L 324.183594 346.511719 C 324.960938 346.511719 325.566406 345.820312 325.441406 345.054688 C 324.96875 342.167969 323.113281 340.136719 320.996094 338.207031 C 321 338.207031 321 338.207031 321 338.207031 C 320.925781 338.140625 320.847656 338.070312 320.769531 338.003906 C 320.132812 337.429688 319.476562 336.855469 318.832031 336.277344 C 318.679688 336.140625 318.53125 336.003906 318.378906 335.867188 C 318.222656 335.71875 318.0625 335.574219 317.90625 335.425781 C 317.746094 335.273438 317.589844 335.117188 317.433594 334.964844 C 317.292969 334.824219 317.148438 334.679688 317.011719 334.535156 C 316.851562 334.371094 316.699219 334.199219 316.546875 334.03125 C 316.417969 333.890625 316.292969 333.75 316.171875 333.601562 C 316.015625 333.417969 315.867188 333.222656 315.722656 333.03125 C 315.613281 332.890625 315.503906 332.753906 315.402344 332.609375 C 315.246094 332.390625 315.105469 332.15625 314.964844 331.925781 C 314.886719 331.796875 314.804688 331.675781 314.730469 331.546875 C 314.527344 331.183594 314.339844 330.808594 314.179688 330.414062 C 314.175781 330.410156 314.171875 330.402344 314.171875 330.398438 C 314.105469 330.234375 314.050781 330.070312 313.988281 329.910156 C 313.089844 327.460938 312.941406 324.992188 313.03125 322.515625 L 314.804688 322.515625 C 316.003906 315.398438 318.257812 301.738281 319.339844 293.632812 C 320.851562 282.296875 318.613281 265.640625 318.613281 265.640625 L 319.625 214.1875 C 319.625 214.1875 319.628906 214.191406 319.632812 214.191406 C 319.863281 214.191406 320.054688 214 320.054688 213.769531 C 320.054688 213.539062 319.867188 213.355469 319.640625 213.347656 L 319.75 207.707031 C 320.523438 207.191406 321.03125 206.328125 321.03125 205.347656 C 321.03125 202.960938 320.804688 199.035156 320.558594 194.789062 C 322.625 202.167969 325.039062 210.769531 325.90625 213.863281 L 325.898438 213.863281 C 325.710938 213.921875 325.605469 214.117188 325.664062 214.304688 C 325.6875 214.386719 325.742188 214.449219 325.804688 214.492188 C 325.742188 214.59375 325.667969 214.695312 325.617188 214.792969 C 324.242188 217.324219 323.980469 219.03125 324.375 222.660156 C 324.25 222.738281 324.183594 222.878906 324.210938 223.027344 C 324.144531 223.007812 324.082031 222.980469 324.011719 222.972656 C 323.066406 222.855469 322.246094 223.613281 322.285156 224.5625 L 322.484375 229.519531 C 322.503906 229.980469 322.730469 230.40625 323.097656 230.6875 L 326.570312 233.3125 C 326.765625 233.648438 326.996094 233.949219 327.292969 234.179688 C 327.519531 234.359375 327.796875 234.453125 328.082031 234.453125 C 328.085938 234.453125 328.09375 234.449219 328.097656 234.449219 C 328.644531 234.820312 329.363281 234.816406 329.890625 234.417969 L 336.945312 229.097656 C 337.347656 228.792969 337.574219 228.308594 337.554688 227.804688 Z M 301.835938 334.929688 C 301.90625 334.929688 301.976562 334.933594 302.046875 334.929688 C 301.972656 334.933594 301.90625 334.929688 301.835938 334.929688 Z M 304.199219 333.976562 C 304.363281 333.835938 304.527344 333.683594 304.695312 333.507812 C 304.90625 333.28125 305.117188 333.066406 305.332031 332.859375 C 305.117188 333.066406 304.90625 333.28125 304.695312 333.507812 C 304.527344 333.683594 304.363281 333.835938 304.199219 333.976562 Z M 302.242188 334.914062 C 302.320312 334.90625 302.402344 334.894531 302.484375 334.878906 C 302.402344 334.894531 302.320312 334.90625 302.242188 334.914062 Z M 302.664062 334.839844 C 302.804688 334.800781 302.945312 334.757812 303.085938 334.695312 C 302.945312 334.757812 302.804688 334.800781 302.664062 334.839844 Z M 303.191406 334.640625 C 303.3125 334.585938 303.429688 334.523438 303.550781 334.453125 C 303.429688 334.523438 303.3125 334.585938 303.191406 334.640625 Z M 303.710938 334.347656 C 303.824219 334.273438 303.9375 334.191406 304.050781 334.097656 C 303.9375 334.191406 303.824219 334.273438 303.710938 334.347656 Z M 311.625 329.585938 C 311.226562 329.605469 310.832031 329.664062 310.4375 329.753906 C 310.210938 329.808594 309.984375 329.875 309.761719 329.949219 C 310.769531 329.613281 311.789062 329.496094 312.804688 329.632812 C 312.414062 329.582031 312.019531 329.566406 311.625 329.585938 Z M 305.527344 332.675781 C 305.679688 332.53125 305.828125 332.390625 305.980469 332.257812 C 305.828125 332.390625 305.679688 332.53125 305.527344 332.675781 Z M 306.207031 332.0625 C 306.359375 331.933594 306.511719 331.808594 306.664062 331.691406 C 306.511719 331.808594 306.359375 331.933594 306.207031 332.0625 Z M 306.863281 331.53125 C 307.300781 331.203125 307.742188 330.910156 308.183594 330.660156 C 307.742188 330.910156 307.300781 331.203125 306.863281 331.53125 Z M 308.382812 330.554688 C 308.539062 330.46875 308.699219 330.390625 308.855469 330.316406 C 308.699219 330.390625 308.542969 330.46875 308.382812 330.554688 Z M 309.082031 330.214844 C 309.242188 330.144531 309.402344 330.082031 309.5625 330.023438 C 309.402344 330.082031 309.242188 330.144531 309.082031 330.214844 Z M 313.398438 329.742188 C 313.21875 329.703125 313.042969 329.671875 312.867188 329.644531 C 313.042969 329.671875 313.21875 329.699219 313.398438 329.742188 Z M 314.09375 208.828125 C 313.859375 208.859375 313.625 208.894531 313.386719 208.921875 C 313.972656 208.851562 314.550781 208.769531 315.128906 208.691406 C 314.785156 208.738281 314.441406 208.789062 314.097656 208.832031 C 314.09375 208.832031 314.09375 208.832031 314.09375 208.828125 Z M 316.035156 208.566406 C 316.914062 208.4375 317.78125 208.304688 318.644531 208.15625 C 317.78125 208.304688 316.914062 208.4375 316.035156 208.566406 Z M 312.269531 209.054688 C 311.753906 209.113281 311.234375 209.171875 310.710938 209.226562 C 311.234375 209.171875 311.753906 209.113281 312.269531 209.054688 Z M 309.464844 209.347656 C 308.984375 209.390625 308.5 209.433594 308.019531 209.476562 C 308.5 209.433594 308.984375 209.390625 309.464844 209.347656 Z M 306.667969 209.582031 C 306.21875 209.613281 305.765625 209.644531 305.3125 209.671875 C 305.765625 209.644531 306.21875 209.613281 306.667969 209.582031 Z M 303.863281 209.757812 C 303.449219 209.78125 303.039062 209.796875 302.621094 209.816406 C 303.035156 209.800781 303.449219 209.78125 303.863281 209.757812 Z M 260.363281 64.792969 C 267.597656 63 274.917969 67.414062 276.710938 74.644531 C 278.503906 81.875 274.089844 89.191406 266.851562 90.984375 C 259.621094 92.773438 252.300781 88.363281 250.507812 81.132812 C 248.714844 73.902344 253.128906 66.582031 260.363281 64.792969 Z M 268.984375 133.066406 C 268.972656 133.070312 268.964844 133.078125 268.953125 133.082031 C 266.652344 133.878906 264.664062 135.570312 263.5625 137.96875 L 250.140625 161.539062 L 258.90625 173.8125 L 250.78125 162.429688 L 250.140625 163.078125 L 237.023438 146.0625 L 245.398438 146.0625 C 247.398438 146.0625 249.023438 144.441406 249.023438 142.441406 L 249.023438 105.613281 C 249.269531 105.746094 249.511719 105.875 249.761719 106 L 253.742188 102.039062 C 255.460938 102.742188 257.25 103.261719 259.097656 103.582031 L 260.359375 109.0625 C 262.109375 109.246094 263.886719 109.273438 265.683594 109.15625 L 267.144531 103.738281 C 268.0625 103.613281 268.972656 103.4375 269.886719 103.214844 C 270.804688 102.988281 271.6875 102.714844 272.558594 102.398438 L 276.378906 106.503906 C 278.023438 105.773438 279.585938 104.917969 281.046875 103.941406 L 279.601562 98.503906 C 281.085938 97.359375 282.425781 96.066406 283.613281 94.644531 L 283.878906 94.722656 C 283.953125 94.984375 284.050781 95.21875 284.167969 95.429688 C 283.390625 96.96875 282.886719 98.671875 282.734375 100.492188 C 282.539062 102.863281 282.960938 105.140625 283.859375 107.175781 C 283.84375 107.542969 283.839844 107.75 283.839844 107.75 L 283.972656 115.351562 C 284.03125 118.792969 285.738281 121.894531 288.351562 123.785156 L 288.316406 127.816406 C 281.921875 128.601562 275.507812 130.34375 268.984375 133.066406 Z M 285.726562 96.644531 C 285.621094 96.96875 285.523438 97.292969 285.429688 97.617188 C 285.523438 97.292969 285.621094 96.96875 285.726562 96.644531 Z M 285.34375 97.917969 C 285.28125 98.144531 285.222656 98.367188 285.164062 98.589844 C 285.222656 98.367188 285.28125 98.144531 285.34375 97.917969 Z M 285.078125 98.921875 C 285.023438 99.140625 284.972656 99.355469 284.921875 99.570312 C 284.972656 99.355469 285.023438 99.140625 285.078125 98.921875 Z M 284.851562 99.867188 C 284.792969 100.144531 284.734375 100.417969 284.679688 100.683594 C 284.734375 100.417969 284.792969 100.144531 284.851562 99.867188 Z M 284.660156 100.777344 C 284.597656 101.082031 284.542969 101.375 284.492188 101.667969 C 284.542969 101.375 284.597656 101.082031 284.660156 100.777344 Z M 284.449219 101.90625 C 284.414062 102.117188 284.378906 102.320312 284.347656 102.523438 C 284.378906 102.320312 284.414062 102.117188 284.449219 101.90625 Z M 284.304688 102.800781 C 284.277344 102.988281 284.25 103.171875 284.222656 103.351562 C 284.25 103.171875 284.277344 102.988281 284.304688 102.800781 Z M 284.191406 103.601562 C 284.160156 103.816406 284.136719 104.023438 284.113281 104.222656 C 284.136719 104.023438 284.160156 103.816406 284.191406 103.601562 Z M 284.097656 104.339844 C 284.070312 104.578125 284.046875 104.804688 284.023438 105.023438 C 284.046875 104.804688 284.070312 104.578125 284.097656 104.339844 Z M 284.003906 105.203125 C 283.992188 105.355469 283.976562 105.5 283.964844 105.640625 C 283.976562 105.5 283.992188 105.355469 284.003906 105.203125 Z M 283.945312 105.859375 C 283.9375 105.976562 283.929688 106.085938 283.921875 106.191406 C 283.929688 106.085938 283.9375 105.976562 283.945312 105.859375 Z M 283.90625 106.398438 C 283.898438 106.496094 283.894531 106.585938 283.886719 106.671875 C 283.894531 106.585938 283.898438 106.496094 283.90625 106.398438 Z M 283.875 106.847656 C 283.875 106.902344 283.871094 106.941406 283.871094 106.988281 C 283.871094 106.941406 283.875 106.902344 283.875 106.847656 Z M 277.316406 208.84375 C 277.277344 208.839844 277.238281 208.832031 277.199219 208.828125 C 277.222656 208.832031 277.242188 208.835938 277.265625 208.835938 C 277.28125 208.839844 277.296875 208.839844 277.316406 208.84375 Z M 271.734375 207.96875 C 271.65625 207.9375 271.578125 207.902344 271.503906 207.863281 C 271.578125 207.902344 271.65625 207.9375 271.734375 207.96875 Z M 272.328125 208.136719 C 272.175781 208.113281 272.035156 208.074219 271.894531 208.027344 C 272.035156 208.074219 272.175781 208.113281 272.328125 208.136719 Z M 279.617188 209.109375 C 279.699219 209.117188 279.78125 209.125 279.867188 209.132812 C 279.78125 209.125 279.699219 209.117188 279.617188 209.109375 Z M 287.527344 209.746094 C 287.632812 209.75 287.738281 209.753906 287.84375 209.761719 C 287.738281 209.753906 287.632812 209.75 287.527344 209.746094 Z M 282.1875 209.359375 C 282.308594 209.371094 282.425781 209.382812 282.546875 209.390625 C 282.425781 209.382812 282.308594 209.371094 282.1875 209.359375 Z M 284.835938 209.574219 C 284.964844 209.585938 285.089844 209.59375 285.21875 209.601562 C 285.089844 209.59375 284.964844 209.585938 284.835938 209.574219 Z M 297.550781 216.097656 C 297.558594 216.089844 297.5625 216.082031 297.566406 216.074219 C 297.5625 216.082031 297.558594 216.089844 297.550781 216.097656 Z M 297.640625 215.976562 C 297.660156 215.929688 297.675781 215.875 297.679688 215.820312 C 297.675781 215.875 297.664062 215.929688 297.640625 215.976562 Z M 300.015625 209.910156 C 300.359375 209.902344 300.707031 209.894531 301.050781 209.882812 C 300.707031 209.894531 300.359375 209.902344 300.015625 209.910156 Z M 297.820312 209.957031 C 297.953125 209.957031 298.089844 209.957031 298.222656 209.953125 C 298.089844 209.957031 297.953125 209.957031 297.820312 209.957031 Z M 313.40625 209.363281 C 313.347656 209.21875 313.289062 209.078125 313.238281 208.945312 C 313.292969 209.078125 313.347656 209.21875 313.40625 209.363281 Z M 314.648438 211.558594 C 314.648438 211.558594 314.644531 211.558594 314.644531 211.554688 C 314.644531 211.558594 314.644531 211.558594 314.648438 211.558594 Z M 313.820312 210.238281 C 313.8125 210.222656 313.808594 210.207031 313.800781 210.195312 C 313.808594 210.210938 313.8125 210.222656 313.820312 210.238281 Z M 319.214844 207.992188 C 319.230469 207.984375 319.242188 207.980469 319.253906 207.972656 C 319.242188 207.980469 319.230469 207.984375 319.214844 207.992188 Z M 320.347656 191.132812 C 320.378906 191.667969 320.410156 192.203125 320.441406 192.738281 C 320.410156 192.203125 320.378906 191.667969 320.347656 191.132812 Z M 320.152344 187.355469 C 320.175781 187.898438 320.207031 188.449219 320.234375 189.003906 C 320.207031 188.449219 320.175781 187.898438 320.152344 187.355469 Z M 320.257812 189.472656 C 320.285156 189.945312 320.308594 190.417969 320.335938 190.894531 C 320.308594 190.417969 320.285156 189.945312 320.257812 189.472656 Z M 320.484375 193.542969 C 320.496094 193.726562 320.507812 193.910156 320.519531 194.09375 C 320.507812 193.910156 320.496094 193.726562 320.484375 193.542969 Z M 320.484375 193.542969 " fill-opacity="1" fill-rule="nonzero"/></g><g clip-path="url(#ce4d709298)"><path fill="#78a0ff" d="M 245.085938 345.082031 C 244.988281 345.839844 245.582031 346.515625 246.351562 346.515625 L 278.382812 346.515625 C 279.046875 346.515625 279.601562 346.003906 279.648438 345.339844 C 279.6875 344.800781 279.726562 344.085938 279.746094 343.265625 L 253.410156 343.265625 L 251.214844 339.839844 C 250.449219 340.214844 249.714844 340.550781 249.03125 340.847656 C 246.035156 342.144531 245.28125 343.640625 245.085938 345.082031 Z M 245.085938 345.082031 " fill-opacity="1" fill-rule="nonzero"/></g><g clip-path="url(#7cc100bb92)"><path fill="#78a0ff" d="M 120.929688 177.277344 C 120.929688 179.269531 122.542969 180.882812 124.535156 180.882812 L 140.476562 180.882812 C 140.050781 179.820312 139.808594 178.660156 139.808594 177.441406 C 139.808594 172.324219 143.957031 168.175781 149.078125 168.175781 C 154.195312 168.175781 158.347656 172.324219 158.347656 177.441406 C 158.347656 178.660156 158.105469 179.820312 157.675781 180.882812 L 174.605469 180.882812 C 176.597656 180.882812 178.210938 179.269531 178.210938 177.277344 L 178.210938 159.984375 C 179.5 160.671875 180.96875 161.066406 182.53125 161.066406 C 187.59375 161.066406 191.695312 156.960938 191.695312 151.902344 C 191.695312 146.84375 187.59375 142.742188 182.53125 142.742188 C 180.96875 142.742188 179.5 143.132812 178.210938 143.824219 L 178.210938 127.230469 C 178.210938 125.242188 176.597656 123.625 174.605469 123.625 L 142.410156 123.625 C 142.429688 123.535156 142.449219 123.441406 142.46875 123.351562 L 143.808594 120.941406 C 144.199219 120.078125 143.742188 119.066406 142.835938 118.792969 C 142.210938 118.601562 141.582031 118.832031 141.1875 119.300781 C 141.128906 118.589844 140.628906 117.945312 139.878906 117.761719 C 139.023438 117.554688 138.207031 118.03125 137.871094 118.8125 C 137.90625 117.902344 137.226562 117.089844 136.28125 117.007812 C 135.292969 116.921875 134.480469 117.679688 134.382812 118.664062 C 134.375 118.726562 134.371094 118.808594 134.363281 118.902344 L 133.230469 118.800781 C 132.945312 118.027344 132.140625 117.527344 131.28125 117.6875 C 130.757812 117.78125 130.351562 118.101562 130.109375 118.527344 L 129.910156 118.507812 C 129.910156 118.507812 129.585938 120.40625 129.175781 123.371094 C 128.851562 122.765625 128.445312 121.984375 128.054688 121.148438 C 127.578125 120.132812 127.039062 119.410156 126.511719 118.910156 C 126.9375 118.15625 127.347656 117.398438 127.726562 116.625 L 124.375 113.257812 C 125.035156 109.871094 125.871094 106.871094 126.1875 102.277344 L 132.285156 100.875 C 132.558594 98.273438 132.601562 95.628906 132.421875 92.960938 L 124.363281 90.785156 C 124.175781 89.425781 123.921875 88.070312 123.582031 86.714844 C 123.246094 85.351562 122.839844 84.035156 122.371094 82.742188 L 128.480469 77.058594 C 127.390625 74.617188 126.121094 72.296875 124.664062 70.125 L 116.574219 72.269531 C 114.875 70.0625 112.941406 68.074219 110.832031 66.308594 L 113.277344 58.320312 C 111.136719 56.769531 108.863281 55.402344 106.492188 54.234375 L 100.566406 60.125 C 98.023438 59.085938 95.359375 58.304688 92.613281 57.828125 L 90.734375 49.679688 C 88.132812 49.40625 85.488281 49.367188 82.816406 49.542969 L 80.640625 57.601562 C 79.28125 57.789062 77.925781 58.042969 76.5625 58.382812 C 75.203125 58.71875 73.886719 59.121094 72.59375 59.59375 L 66.910156 53.484375 C 64.464844 54.574219 62.140625 55.84375 59.96875 57.300781 L 62.117188 65.382812 C 59.910156 67.085938 57.917969 69.019531 56.148438 71.128906 L 48.164062 68.683594 C 46.609375 70.824219 45.242188 73.09375 44.074219 75.460938 L 49.964844 81.386719 C 48.917969 83.929688 48.144531 86.589844 47.667969 89.335938 L 39.515625 91.210938 C 39.242188 93.8125 39.199219 96.457031 39.378906 99.125 L 47.4375 101.300781 C 47.625 102.664062 47.882812 104.015625 48.21875 105.378906 C 48.554688 106.734375 48.960938 108.050781 49.429688 109.34375 L 43.320312 115.027344 C 44.410156 117.472656 45.679688 119.789062 47.136719 121.960938 L 55.226562 119.816406 C 56.925781 122.023438 58.855469 124.015625 60.96875 125.785156 L 58.523438 133.765625 C 59.925781 134.78125 61.386719 135.707031 62.890625 136.5625 C 56.460938 148.222656 53.855469 163.6875 64.703125 173.804688 C 65.03125 173.484375 65.335938 173.199219 65.609375 172.945312 C 65.925781 173.222656 66.296875 173.449219 66.710938 173.601562 C 66.851562 173.648438 66.992188 173.695312 67.132812 173.746094 L 64.914062 174.011719 C 64.839844 173.945312 64.773438 173.871094 64.699219 173.804688 C 60.191406 178.152344 50.917969 188.683594 50.917969 201.722656 L 51.613281 238.671875 C 51.691406 243.777344 50.839844 248.851562 49.085938 253.640625 C 41.742188 273.664062 43.125 305.886719 43.125 319.863281 L 44.367188 319.863281 C 44.371094 321.703125 44.355469 323.746094 44.308594 325.863281 C 44.308594 325.867188 44.308594 325.867188 44.308594 325.867188 C 44.308594 325.867188 44.308594 325.867188 44.308594 325.863281 C 43.789062 329.765625 43.105469 332.664062 43.019531 336.367188 L 42.945312 336.367188 C 42.75 336.367188 42.59375 336.523438 42.59375 336.71875 C 42.59375 336.914062 42.75 337.074219 42.945312 337.074219 L 43.011719 337.074219 C 43.011719 337.882812 43.035156 338.734375 43.101562 339.644531 L 63.636719 339.644531 C 63.597656 338.503906 63.328125 337.558594 62.914062 336.738281 C 62.914062 336.730469 62.917969 336.726562 62.917969 336.71875 C 62.917969 336.59375 62.847656 336.488281 62.75 336.425781 C 60.683594 332.789062 55.734375 331.628906 55.699219 326.039062 C 55.625 325.59375 55.496094 325.230469 55.320312 324.9375 C 55.40625 325.082031 55.480469 325.238281 55.539062 325.414062 C 55.574219 323.671875 55.707031 321.734375 55.878906 319.863281 L 57.289062 319.863281 L 72.683594 253.355469 L 74.53125 240.734375 C 74.539062 240.8125 74.542969 240.886719 74.550781 240.960938 L 73.644531 247.820312 C 73.613281 248.050781 73.777344 248.261719 74.007812 248.292969 C 74.027344 248.296875 74.042969 248.296875 74.0625 248.296875 C 74.269531 248.296875 74.453125 248.140625 74.480469 247.929688 L 80.40625 203.0625 L 74.761719 245.796875 C 74.722656 248.464844 74.417969 251.09375 73.847656 253.640625 C 69.332031 273.664062 73.695312 305.886719 75.667969 319.863281 L 76.398438 319.863281 C 76.4375 322.355469 76.28125 324.789062 75.785156 326.953125 C 75.78125 326.960938 74.308594 330.800781 74.414062 336.367188 C 74.21875 336.367188 74.0625 336.527344 74.0625 336.71875 C 74.0625 336.914062 74.222656 337.074219 74.417969 337.074219 L 74.429688 337.074219 C 74.464844 337.898438 74.535156 338.757812 74.652344 339.648438 L 109.359375 339.644531 C 109.359375 339.644531 109.632812 338.425781 108.972656 337.03125 C 109.085938 336.972656 109.167969 336.855469 109.167969 336.71875 C 109.167969 336.523438 109.007812 336.367188 108.8125 336.367188 L 108.582031 336.367188 C 108.003906 335.535156 107.050781 334.703125 105.457031 334.074219 C 101.183594 332.398438 95.71875 331.101562 89.53125 324.398438 C 84.277344 329.8125 76.585938 327.238281 75.851562 326.976562 C 76.582031 327.238281 84.234375 329.796875 89.488281 324.441406 C 89.390625 323.070312 89.367188 321.503906 89.382812 319.863281 L 89.832031 319.863281 L 95.933594 253.355469 L 94.507812 195.570312 L 94.507812 176.132812 C 94.96875 175.96875 95.382812 175.710938 95.730469 175.378906 C 97.925781 176.492188 100.664062 176.289062 102.6875 174.628906 L 127.808594 154.050781 L 120.929688 159.6875 Z M 54.871094 324.421875 C 54.808594 324.371094 54.753906 324.320312 54.6875 324.277344 C 54.753906 324.320312 54.808594 324.371094 54.871094 324.421875 Z M 54.496094 324.179688 C 54.425781 324.144531 54.359375 324.109375 54.289062 324.085938 C 54.359375 324.109375 54.425781 324.144531 54.496094 324.179688 Z M 54.070312 324.023438 C 53.996094 324.003906 53.921875 323.984375 53.84375 323.972656 C 53.921875 323.984375 53.996094 324.003906 54.070312 324.023438 Z M 53.609375 323.949219 C 53.527344 323.945312 53.445312 323.9375 53.359375 323.9375 C 53.445312 323.9375 53.527344 323.945312 53.609375 323.949219 Z M 53.113281 323.945312 C 53.023438 323.949219 52.9375 323.957031 52.847656 323.96875 C 52.9375 323.957031 53.023438 323.953125 53.113281 323.945312 Z M 52.589844 324.003906 C 52.496094 324.019531 52.402344 324.039062 52.308594 324.058594 C 52.402344 324.039062 52.496094 324.019531 52.589844 324.003906 Z M 52.042969 324.121094 C 51.945312 324.144531 51.847656 324.171875 51.75 324.203125 C 51.847656 324.171875 51.945312 324.144531 52.042969 324.121094 Z M 51.480469 324.285156 C 51.382812 324.320312 51.28125 324.355469 51.183594 324.390625 C 51.28125 324.355469 51.382812 324.320312 51.480469 324.285156 Z M 50.914062 324.488281 C 50.8125 324.53125 50.710938 324.574219 50.605469 324.617188 C 50.710938 324.574219 50.8125 324.53125 50.914062 324.488281 Z M 50.347656 324.726562 C 50.242188 324.773438 50.136719 324.824219 50.03125 324.875 C 50.136719 324.824219 50.242188 324.773438 50.347656 324.726562 Z M 49.785156 324.992188 C 49.675781 325.046875 49.566406 325.101562 49.457031 325.160156 C 49.566406 325.101562 49.675781 325.046875 49.785156 324.992188 Z M 49.234375 325.273438 C 49.113281 325.339844 48.992188 325.40625 48.875 325.472656 C 48.992188 325.40625 49.113281 325.339844 49.234375 325.273438 Z M 48.707031 325.566406 C 48.535156 325.664062 48.363281 325.765625 48.203125 325.863281 C 48.363281 325.765625 48.535156 325.664062 48.707031 325.566406 Z M 55.03125 324.558594 C 55.09375 324.621094 55.144531 324.699219 55.199219 324.773438 C 55.144531 324.699219 55.09375 324.621094 55.03125 324.558594 Z M 124.507812 123.632812 C 124.15625 123.632812 123.824219 123.699219 123.503906 123.796875 C 123.5 123.652344 123.496094 123.507812 123.496094 123.363281 L 123.640625 123.410156 C 123.882812 123.070312 124.117188 122.722656 124.351562 122.378906 C 124.402344 122.789062 124.453125 123.203125 124.507812 123.632812 Z M 99.625 134.558594 C 99.578125 134.507812 99.53125 134.460938 99.484375 134.414062 C 99.535156 134.460938 99.578125 134.507812 99.625 134.558594 Z M 74.957031 175.875 C 74.898438 175.863281 74.835938 175.851562 74.777344 175.839844 C 74.835938 175.851562 74.898438 175.863281 74.957031 175.875 Z M 73.28125 175.519531 C 73.242188 175.511719 73.203125 175.503906 73.164062 175.496094 C 73.203125 175.503906 73.242188 175.511719 73.28125 175.519531 Z M 71.644531 175.125 C 71.625 175.121094 71.609375 175.117188 71.589844 175.109375 C 71.609375 175.113281 71.625 175.117188 71.644531 175.125 Z M 76.691406 176.1875 C 76.601562 176.171875 76.511719 176.160156 76.425781 176.144531 C 76.511719 176.160156 76.601562 176.171875 76.691406 176.1875 Z M 83.949219 176.914062 C 83.730469 176.90625 83.515625 176.902344 83.300781 176.894531 C 83.515625 176.902344 83.730469 176.90625 83.949219 176.914062 Z M 82.101562 176.820312 C 81.917969 176.804688 81.730469 176.796875 81.546875 176.78125 C 81.730469 176.796875 81.917969 176.804688 82.101562 176.820312 Z M 80.273438 176.664062 C 80.121094 176.648438 79.964844 176.636719 79.8125 176.617188 C 79.964844 176.636719 80.121094 176.648438 80.273438 176.664062 Z M 78.460938 176.449219 C 78.34375 176.433594 78.222656 176.421875 78.105469 176.40625 C 78.222656 176.421875 78.34375 176.433594 78.460938 176.449219 Z M 85.066406 176.949219 C 85.316406 176.953125 85.566406 176.949219 85.816406 176.949219 C 85.566406 176.949219 85.316406 176.953125 85.066406 176.949219 Z M 100.34375 135.335938 C 100.386719 135.382812 100.425781 135.425781 100.46875 135.476562 C 100.425781 135.425781 100.386719 135.382812 100.34375 135.335938 Z M 101.234375 136.445312 C 101.425781 136.566406 101.617188 136.6875 101.804688 136.824219 C 101.617188 136.6875 101.425781 136.566406 101.234375 136.445312 Z M 81.070312 76.570312 C 89.808594 74.40625 98.632812 78.328125 103.066406 85.636719 C 102.875 85.675781 102.6875 85.703125 102.496094 85.746094 C 91.175781 87.804688 84.621094 87.453125 82.359375 100.378906 C 81.066406 107.769531 81.417969 111.472656 79.871094 115.183594 C 73.425781 113.144531 68.160156 107.90625 66.417969 100.871094 C 63.75 90.117188 70.316406 79.234375 81.070312 76.570312 Z M 64.511719 169.574219 C 64.46875 169.765625 64.445312 169.960938 64.433594 170.148438 C 64.445312 169.960938 64.46875 169.765625 64.511719 169.574219 Z M 64.429688 170.320312 C 64.429688 170.457031 64.4375 170.597656 64.453125 170.734375 C 64.4375 170.597656 64.429688 170.457031 64.429688 170.320312 Z M 64.601562 171.433594 C 64.542969 171.257812 64.503906 171.082031 64.472656 170.898438 C 64.503906 171.082031 64.542969 171.257812 64.601562 171.433594 Z M 64.617188 171.476562 C 64.671875 171.632812 64.742188 171.785156 64.820312 171.933594 C 64.742188 171.785156 64.671875 171.632812 64.617188 171.476562 Z M 65.238281 172.558594 C 65.351562 172.695312 65.476562 172.828125 65.609375 172.945312 C 65.472656 172.828125 65.351562 172.695312 65.238281 172.558594 Z M 64.910156 172.09375 C 64.976562 172.203125 65.046875 172.308594 65.125 172.410156 C 65.046875 172.308594 64.976562 172.203125 64.910156 172.09375 Z M 70.078125 174.695312 C 70.070312 174.691406 70.0625 174.691406 70.058594 174.6875 C 70.0625 174.691406 70.070312 174.691406 70.078125 174.695312 Z M 88.628906 176.878906 C 88.949219 176.863281 89.269531 176.832031 89.589844 176.808594 C 89.269531 176.832031 88.949219 176.863281 88.628906 176.878906 Z M 86.847656 176.945312 C 87.128906 176.9375 87.414062 176.925781 87.699219 176.914062 C 87.414062 176.925781 87.128906 176.9375 86.847656 176.945312 Z M 92.195312 176.550781 C 92.789062 176.46875 93.378906 176.378906 93.964844 176.277344 C 93.378906 176.378906 92.789062 176.46875 92.195312 176.550781 Z M 90.414062 176.746094 C 90.792969 176.714844 91.171875 176.664062 91.546875 176.621094 C 91.171875 176.664062 90.792969 176.714844 90.414062 176.746094 Z M 101.375 159.4375 C 101.554688 158.820312 101.730469 158.203125 101.902344 157.582031 L 102.972656 158.375 Z M 120.847656 146.472656 C 120.875 146.296875 120.902344 146.121094 120.929688 145.945312 L 120.929688 146.421875 L 122.800781 145.175781 Z M 120.847656 146.472656 " fill-opacity="1" fill-rule="nonzero"/></g><g clip-path="url(#5844eecd3d)"><path fill="#78a0ff" d="M 72.59375 59.59375 L 66.910156 53.484375 C 64.464844 54.574219 62.144531 55.84375 59.972656 57.296875 L 62.117188 65.382812 C 59.910156 67.085938 57.921875 69.019531 56.148438 71.125 L 48.164062 68.679688 C 46.613281 70.820312 45.242188 73.089844 44.074219 75.460938 L 49.964844 81.382812 C 48.917969 83.929688 48.144531 86.589844 47.671875 89.335938 L 39.515625 91.210938 C 39.242188 93.8125 39.199219 96.457031 39.378906 99.125 L 47.4375 101.300781 C 47.625 102.664062 47.882812 104.015625 48.21875 105.378906 C 48.554688 106.734375 48.960938 108.050781 49.429688 109.34375 L 43.320312 115.027344 C 44.410156 117.472656 45.679688 119.789062 47.136719 121.960938 L 55.226562 119.816406 C 56.925781 122.023438 58.855469 124.015625 60.96875 125.785156 L 58.523438 133.765625 C 60.664062 135.316406 62.933594 136.683594 65.308594 137.855469 L 71.226562 131.964844 C 73.78125 133.011719 76.441406 133.785156 79.1875 134.257812 L 81.066406 142.410156 C 83.664062 142.683594 86.3125 142.722656 88.984375 142.546875 L 91.15625 134.492188 C 92.519531 134.304688 93.875 134.046875 95.230469 133.710938 C 96.597656 133.371094 97.914062 132.96875 99.203125 132.496094 L 104.890625 138.605469 C 107.335938 137.515625 109.65625 136.246094 111.828125 134.789062 L 109.683594 126.707031 C 111.890625 125.003906 113.882812 123.078125 115.644531 120.964844 L 123.636719 123.410156 C 125.191406 121.269531 126.558594 119 127.726562 116.628906 L 121.835938 110.714844 C 122.875 108.160156 123.65625 105.5 124.132812 102.753906 L 132.285156 100.878906 C 132.558594 98.277344 132.601562 95.632812 132.421875 92.964844 L 124.363281 90.789062 C 124.175781 89.425781 123.917969 88.074219 123.582031 86.71875 C 123.246094 85.355469 122.839844 84.039062 122.371094 82.746094 L 128.480469 77.0625 C 127.390625 74.617188 126.121094 72.296875 124.664062 70.128906 L 116.574219 72.273438 C 114.875 70.066406 112.941406 68.078125 110.832031 66.3125 L 113.277344 58.324219 C 111.136719 56.773438 108.863281 55.40625 106.492188 54.238281 L 100.566406 60.125 C 98.023438 59.089844 95.359375 58.308594 92.613281 57.832031 L 90.734375 49.679688 C 88.132812 49.40625 85.488281 49.367188 82.816406 49.542969 L 80.640625 57.601562 C 79.28125 57.789062 77.925781 58.042969 76.5625 58.382812 C 75.203125 58.714844 73.886719 59.121094 72.59375 59.59375 Z M 81.070312 76.570312 C 91.832031 73.90625 102.71875 80.464844 105.386719 91.222656 C 108.050781 101.972656 101.484375 112.855469 90.722656 115.519531 C 79.96875 118.183594 69.082031 111.625 66.417969 100.875 C 63.75 90.117188 70.316406 79.234375 81.070312 76.570312 Z M 254.664062 53.375 L 250.839844 49.269531 C 249.195312 50 247.636719 50.855469 246.175781 51.832031 L 247.617188 57.269531 C 246.132812 58.414062 244.796875 59.714844 243.601562 61.132812 L 238.234375 59.488281 C 237.191406 60.925781 236.273438 62.453125 235.484375 64.046875 L 239.445312 68.027344 C 238.742188 69.742188 238.222656 71.527344 237.902344 73.375 L 232.417969 74.636719 C 232.234375 76.386719 232.207031 78.164062 232.328125 79.960938 L 237.746094 81.421875 C 237.875 82.335938 238.046875 83.246094 238.273438 84.164062 C 238.5 85.074219 238.773438 85.960938 239.089844 86.828125 L 234.980469 90.652344 C 235.710938 92.292969 236.566406 93.855469 237.546875 95.3125 L 242.984375 93.871094 C 244.128906 95.355469 245.425781 96.695312 246.847656 97.882812 L 245.203125 103.25 C 246.640625 104.292969 248.167969 105.214844 249.765625 106 L 253.742188 102.039062 C 255.460938 102.742188 257.25 103.261719 259.097656 103.582031 L 260.359375 109.0625 C 262.109375 109.246094 263.890625 109.273438 265.683594 109.152344 L 267.148438 103.738281 C 268.0625 103.609375 268.972656 103.4375 269.886719 103.214844 C 270.804688 102.984375 271.6875 102.714844 272.558594 102.398438 L 276.382812 106.503906 C 278.027344 105.773438 279.585938 104.917969 281.046875 103.9375 L 279.601562 98.503906 C 281.085938 97.359375 282.425781 96.0625 283.613281 94.640625 L 288.988281 96.285156 C 290.03125 94.847656 290.949219 93.320312 291.738281 91.726562 L 287.777344 87.75 C 288.472656 86.035156 289 84.242188 289.316406 82.398438 L 294.800781 81.136719 C 294.984375 79.386719 295.011719 77.609375 294.894531 75.8125 L 289.472656 74.351562 C 289.347656 73.4375 289.175781 72.527344 288.949219 71.613281 C 288.722656 70.695312 288.449219 69.8125 288.132812 68.941406 L 292.242188 65.121094 C 291.511719 63.476562 290.65625 61.917969 289.675781 60.457031 L 284.238281 61.902344 C 283.09375 60.417969 281.792969 59.078125 280.375 57.894531 L 282.019531 52.519531 C 280.578125 51.480469 279.050781 50.558594 277.457031 49.773438 L 273.472656 53.734375 C 271.761719 53.035156 269.972656 52.507812 268.125 52.191406 L 266.859375 46.707031 C 265.113281 46.523438 263.332031 46.496094 261.535156 46.617188 L 260.074219 52.035156 C 259.15625 52.160156 258.25 52.332031 257.332031 52.558594 C 256.417969 52.789062 255.53125 53.058594 254.664062 53.375 Z M 260.363281 64.792969 C 267.597656 63 274.917969 67.414062 276.710938 74.644531 C 278.503906 81.875 274.089844 89.191406 266.851562 90.984375 C 259.621094 92.773438 252.300781 88.363281 250.507812 81.132812 C 248.714844 73.902344 253.128906 66.582031 260.363281 64.792969 Z M 167.640625 240.238281 L 161.132812 234.644531 C 158.757812 236.035156 156.53125 237.597656 154.476562 239.335938 L 157.59375 247.351562 C 155.535156 249.339844 153.722656 251.542969 152.152344 253.902344 L 143.710938 252.3125 C 142.371094 254.679688 141.230469 257.15625 140.308594 259.710938 L 147.007812 265.089844 C 146.226562 267.8125 145.742188 270.617188 145.570312 273.476562 L 137.449219 276.328125 C 137.46875 279.015625 137.726562 281.722656 138.214844 284.429688 L 146.699219 285.730469 C 147.046875 287.101562 147.464844 288.453125 147.964844 289.808594 C 148.464844 291.15625 149.027344 292.457031 149.65625 293.722656 L 144.0625 300.230469 C 145.453125 302.601562 147.015625 304.828125 148.753906 306.878906 L 156.773438 303.765625 C 158.765625 305.824219 160.960938 307.640625 163.328125 309.207031 L 161.738281 317.640625 C 164.105469 318.980469 166.582031 320.117188 169.140625 321.042969 L 174.515625 314.351562 C 177.246094 315.125 180.050781 315.613281 182.914062 315.785156 L 185.761719 323.898438 C 188.453125 323.882812 191.160156 323.621094 193.871094 323.132812 L 195.171875 314.65625 C 196.542969 314.308594 197.898438 313.890625 199.246094 313.394531 C 200.601562 312.890625 201.902344 312.328125 203.167969 311.699219 L 209.675781 317.292969 C 212.050781 315.902344 214.277344 314.335938 216.332031 312.601562 L 213.214844 304.585938 C 215.273438 302.59375 217.089844 300.398438 218.652344 298.035156 L 227.097656 299.621094 C 228.4375 297.257812 229.578125 294.78125 230.5 292.226562 L 223.804688 286.851562 C 224.574219 284.125 225.066406 281.316406 225.242188 278.457031 L 233.359375 275.609375 C 233.34375 272.921875 233.082031 270.214844 232.59375 267.507812 L 224.109375 266.203125 C 223.761719 264.835938 223.347656 263.480469 222.847656 262.132812 C 222.347656 260.777344 221.78125 259.476562 221.152344 258.210938 L 226.75 251.707031 C 225.355469 249.332031 223.792969 247.109375 222.054688 245.054688 L 214.035156 248.171875 C 212.042969 246.113281 209.839844 244.300781 207.484375 242.738281 L 209.070312 234.296875 C 206.703125 232.957031 204.226562 231.816406 201.667969 230.894531 L 196.289062 237.589844 C 193.566406 236.816406 190.757812 236.324219 187.898438 236.152344 L 185.046875 228.035156 C 182.355469 228.054688 179.648438 228.3125 176.9375 228.800781 L 175.636719 237.28125 C 174.265625 237.628906 172.914062 238.042969 171.554688 238.546875 C 170.207031 239.042969 168.910156 239.609375 167.640625 240.238281 Z M 178.242188 256.617188 C 188.933594 252.667969 200.8125 258.128906 204.765625 268.816406 C 208.71875 279.496094 203.253906 291.367188 192.558594 295.320312 C 181.875 299.269531 169.996094 293.808594 166.046875 283.125 C 162.09375 272.4375 167.554688 260.566406 178.242188 256.617188 Z M 74.0625 248.296875 C 74.046875 248.296875 74.027344 248.296875 74.007812 248.292969 C 73.777344 248.261719 73.613281 248.050781 73.644531 247.820312 L 79.589844 202.804688 C 79.601562 202.710938 79.644531 202.621094 79.71875 202.554688 L 85.960938 196.625 C 86.125 196.464844 86.394531 196.472656 86.554688 196.640625 C 86.714844 196.808594 86.710938 197.078125 86.539062 197.238281 L 80.40625 203.0625 L 74.480469 247.929688 C 74.453125 248.140625 74.273438 248.296875 74.0625 248.296875 Z M 297.261719 216.214844 C 297.25 216.214844 297.242188 216.214844 297.234375 216.214844 L 290.726562 215.804688 C 290.492188 215.789062 290.316406 215.589844 290.332031 215.359375 C 290.347656 215.125 290.542969 214.9375 290.777344 214.964844 L 297.285156 215.375 C 297.519531 215.390625 297.695312 215.589844 297.679688 215.820312 C 297.667969 216.046875 297.480469 216.214844 297.261719 216.214844 Z M 277.316406 208.84375 C 276.496094 211.027344 274.660156 214.191406 270.886719 214.191406 C 270.652344 214.191406 270.464844 214.003906 270.464844 213.769531 C 270.464844 213.535156 270.652344 213.347656 270.886719 213.347656 C 274.066406 213.347656 275.691406 210.695312 276.457031 208.730469 C 276.742188 208.769531 277.027344 208.808594 277.316406 208.84375 Z M 320.054688 213.769531 C 320.054688 214.003906 319.863281 214.191406 319.632812 214.191406 C 315.914062 214.191406 314.074219 211.125 313.238281 208.945312 C 313.527344 208.910156 313.808594 208.867188 314.09375 208.828125 C 314.875 210.78125 316.5 213.347656 319.628906 213.347656 C 319.863281 213.347656 320.054688 213.535156 320.054688 213.769531 Z M 320.054688 213.769531 " fill-opacity="1" fill-rule="nonzero"/></g><path fill="#ff7bac" d="M 44.308594 325.863281 C 44.308594 325.863281 45.785156 327.328125 48.203125 325.863281 C 50.894531 324.230469 55.097656 322.410156 55.699219 326.039062 C 55.742188 332.996094 63.40625 333.085938 63.636719 339.644531 L 43.101562 339.644531 C 42.714844 334.171875 43.644531 330.839844 44.308594 325.863281 M 75.785156 326.953125 C 75.785156 326.953125 73.695312 332.351562 74.648438 339.648438 L 109.359375 339.644531 C 109.359375 339.644531 110.207031 335.941406 105.453125 334.074219 C 101.183594 332.398438 95.714844 331.101562 89.53125 324.398438 C 84.007812 330.089844 75.785156 326.953125 75.785156 326.953125 M 120.21875 150.289062 L 102.128906 137.078125 C 102.03125 136.996094 101.90625 136.898438 101.800781 136.824219 C 101.617188 136.6875 101.425781 136.566406 101.234375 136.445312 C 98.140625 132.171875 92.964844 129.414062 87.226562 129.414062 C 79.222656 129.414062 72.316406 135.023438 70.675781 142.851562 L 64.511719 169.574219 C 64.117188 171.28125 65.070312 172.996094 66.710938 173.597656 C 74.273438 176.371094 84.476562 177.933594 93.964844 176.277344 C 95.183594 176.066406 96.1875 175.210938 96.605469 174.046875 C 97.738281 170.894531 100.085938 164.160156 101.902344 157.582031 L 106.839844 161.242188 Z M 247.210938 248.777344 C 242.09375 248.777344 237.945312 244.628906 237.945312 239.511719 C 237.945312 234.398438 242.09375 230.25 247.210938 230.25 C 248.46875 230.25 249.660156 230.507812 250.75 230.960938 L 250.75 214.628906 C 250.75 212.617188 249.117188 210.984375 247.105469 210.984375 L 229.605469 210.984375 C 230.300781 209.683594 230.699219 208.195312 230.699219 206.617188 C 230.699219 201.5 226.546875 197.355469 221.429688 197.355469 C 216.308594 197.355469 212.160156 201.5 212.160156 206.617188 C 212.160156 208.195312 212.558594 209.683594 213.253906 210.984375 L 196.46875 210.984375 C 194.453125 210.984375 192.820312 212.617188 192.820312 214.628906 L 192.820312 265.242188 C 192.820312 267.253906 194.453125 268.886719 196.46875 268.886719 L 247.105469 268.886719 C 249.121094 268.886719 250.753906 267.253906 250.753906 265.242188 L 250.753906 248.066406 C 249.660156 248.519531 248.46875 248.777344 247.210938 248.777344 Z M 334.097656 184.566406 C 332.757812 171.285156 332.34375 155.578125 332.109375 152.472656 C 331.789062 148.804688 331.484375 145.136719 331.027344 141.480469 C 330.59375 138.035156 328.394531 135.246094 325.453125 133.894531 C 325.457031 133.871094 325.460938 133.851562 325.460938 133.851562 C 318.644531 130.910156 311.988281 128.964844 305.390625 128.015625 L 305.5 129.472656 C 305.816406 134.042969 302.53125 138.085938 297.667969 138.414062 C 292.808594 138.742188 288.609375 135.304688 288.289062 130.738281 L 288.316406 127.820312 C 281.921875 128.601562 275.507812 130.34375 268.984375 133.066406 C 268.972656 133.070312 268.964844 133.078125 268.953125 133.082031 C 266.648438 133.878906 264.664062 135.570312 263.5625 137.96875 L 250.140625 161.539062 L 264.574219 181.753906 L 270.355469 168.703125 C 270.75 173.609375 271.011719 177.789062 271.011719 180.152344 C 271.011719 187.359375 269.917969 200.050781 269.917969 205.328125 C 269.917969 206.730469 270.941406 207.914062 272.324219 208.140625 C 287.226562 210.550781 304.128906 210.621094 318.640625 208.15625 C 320.015625 207.925781 321.027344 206.742188 321.027344 205.347656 C 321.027344 201.585938 320.46875 194.007812 320.148438 187.355469 Z M 119.046875 106.625 C 117.484375 106.625 116.121094 107.691406 115.425781 109.253906 C 114.796875 108.964844 114.152344 108.972656 113.523438 109.28125 C 112.832031 107.703125 111.46875 106.625 109.894531 106.625 C 107.628906 106.625 105.785156 108.863281 105.785156 111.617188 C 105.785156 114.367188 107.628906 116.605469 109.894531 116.605469 C 112.160156 116.605469 114.003906 114.367188 114.003906 111.617188 C 114.003906 111.042969 113.921875 110.492188 113.773438 109.976562 C 114.25 109.71875 114.703125 109.707031 115.179688 109.949219 C 115.023438 110.472656 114.9375 111.03125 114.9375 111.617188 C 114.9375 114.367188 116.78125 116.605469 119.046875 116.605469 C 121.3125 116.605469 123.160156 114.367188 123.160156 111.617188 C 123.15625 108.863281 121.3125 106.625 119.046875 106.625 Z M 109.894531 115.882812 C 108.023438 115.882812 106.503906 113.96875 106.503906 111.613281 C 106.503906 109.261719 108.023438 107.347656 109.894531 107.347656 C 111.761719 107.347656 113.28125 109.261719 113.28125 111.613281 C 113.28125 113.96875 111.761719 115.882812 109.894531 115.882812 Z M 119.046875 115.882812 C 117.175781 115.882812 115.65625 113.96875 115.65625 111.613281 C 115.65625 109.261719 117.175781 107.347656 119.046875 107.347656 C 120.914062 107.347656 122.433594 109.261719 122.433594 111.613281 C 122.433594 113.96875 120.914062 115.882812 119.046875 115.882812 Z M 119.046875 115.882812 " fill-opacity="1" fill-rule="evenodd"/><g clip-path="url(#61f275a5c2)"><path fill="#f5c0a2" d="M 143.808594 120.941406 L 142.46875 123.351562 C 141.945312 125.816406 141.269531 128.582031 140.71875 131.082031 C 140.082031 133.996094 137.3125 135.359375 133.503906 134.792969 C 129.171875 134.144531 128.066406 132.144531 128.0625 132.140625 C 124.152344 127.675781 124.753906 123.359375 123.980469 120.101562 C 123.640625 118.679688 123.550781 118.328125 124.230469 118.054688 C 124.988281 117.753906 126.746094 118.371094 128.054688 121.152344 C 128.445312 121.988281 128.851562 122.765625 129.175781 123.375 C 129.585938 120.410156 129.910156 118.511719 129.910156 118.511719 L 130.109375 118.527344 C 130.351562 118.105469 130.757812 117.785156 131.28125 117.6875 C 132.140625 117.53125 132.945312 118.03125 133.230469 118.804688 L 134.363281 118.90625 C 134.371094 118.8125 134.375 118.730469 134.382812 118.664062 C 134.480469 117.679688 135.292969 116.925781 136.28125 117.011719 C 137.226562 117.09375 137.90625 117.90625 137.871094 118.816406 C 138.207031 118.03125 139.023438 117.558594 139.875 117.765625 C 140.628906 117.949219 141.128906 118.589844 141.1875 119.304688 C 141.582031 118.835938 142.210938 118.605469 142.835938 118.792969 C 143.742188 119.070312 144.203125 120.082031 143.808594 120.941406 Z M 313.03125 322.515625 L 301.320312 322.515625 C 301.3125 322.738281 301.300781 322.953125 301.300781 323.1875 C 301.300781 327.261719 301.0625 330.382812 300.863281 334.726562 C 301.886719 335.132812 303.222656 335.074219 304.691406 333.507812 C 307.644531 330.355469 310.824219 328.859375 313.988281 329.910156 C 313.089844 327.460938 312.941406 324.996094 313.03125 322.515625 Z M 44.308594 325.863281 C 44.308594 325.863281 45.785156 327.328125 48.203125 325.863281 C 50.726562 324.332031 54.566406 322.640625 55.539062 325.414062 C 55.574219 323.671875 55.707031 321.730469 55.878906 319.863281 L 44.367188 319.863281 C 44.371094 321.703125 44.355469 323.746094 44.308594 325.863281 C 44.308594 325.863281 44.308594 325.867188 44.308594 325.867188 C 44.308594 325.867188 44.308594 325.863281 44.308594 325.863281 Z M 75.785156 326.953125 C 75.785156 326.953125 83.964844 330.070312 89.488281 324.441406 C 89.390625 323.070312 89.367188 321.503906 89.382812 319.863281 L 76.398438 319.863281 C 76.4375 322.355469 76.28125 324.789062 75.785156 326.953125 Z M 146.609375 142.699219 C 144.332031 142.699219 144.40625 142.742188 137.277344 142.710938 C 137.277344 142.710938 137.144531 142.707031 136.914062 142.707031 C 136.664062 142.707031 136.402344 142.707031 136.132812 142.707031 L 136.140625 142.714844 C 133.996094 142.753906 129.203125 142.957031 125.117188 143.984375 C 124.355469 144.175781 123.660156 144.539062 123.070312 145.015625 C 122.980469 145.070312 122.890625 145.117188 122.800781 145.175781 L 100.914062 159.746094 L 97.382812 153.683594 L 85.539062 161.300781 L 93.007812 172.757812 L 93.277344 173.179688 C 93.402344 173.371094 93.539062 173.554688 93.6875 173.734375 C 95.925781 176.46875 99.957031 176.867188 102.691406 174.628906 L 127.808594 154.050781 C 129.378906 154.253906 131.402344 154.425781 133.402344 154.390625 L 134.824219 155.515625 C 135.113281 155.742188 135.480469 155.847656 135.84375 155.804688 L 138.289062 155.511719 C 138.746094 155.460938 139.132812 155.164062 139.308594 154.742188 L 141.304688 149.921875 C 141.660156 149.070312 141.4375 148.082031 140.75 147.460938 L 139.28125 146.140625 C 140.902344 145.953125 144.296875 145.546875 145.835938 145.257812 C 147.609375 144.921875 148.734375 142.699219 146.609375 142.699219 Z M 250.78125 162.429688 L 250.140625 163.078125 L 237.023438 146.066406 L 201.691406 146.066406 C 201.636719 146.730469 202.101562 147.347656 203.15625 147.503906 C 203.507812 147.558594 203.949219 147.609375 204.449219 147.65625 C 204.078125 148.402344 204.351562 149.183594 205.433594 149.308594 C 205.90625 149.363281 206.613281 149.4375 207.453125 149.527344 C 207.652344 149.808594 207.964844 150.046875 208.398438 150.175781 C 210.3125 150.753906 213.972656 151.5625 215.382812 151.871094 C 215.761719 151.953125 216.140625 152.007812 216.527344 152.039062 C 216.527344 152.039062 223.882812 152.652344 224.988281 152.707031 L 225.011719 152.710938 C 225.261719 152.722656 225.519531 152.730469 225.777344 152.734375 L 241.449219 181.074219 C 244.109375 185.445312 249.808594 186.832031 254.183594 184.171875 C 254.929688 183.71875 258.074219 180.5 261.277344 177.132812 Z M 337.546875 227.722656 C 337.546875 227.714844 337.550781 227.707031 337.550781 227.699219 C 337.53125 227.179688 337.402344 225.800781 337.230469 224.078125 L 337.230469 224.074219 C 336.777344 219.539062 336.007812 212.609375 336.007812 212.605469 L 332.898438 184.808594 L 320.152344 187.355469 C 320.269531 189.789062 320.417969 192.34375 320.558594 194.789062 C 322.699219 202.433594 325.214844 211.40625 326 214.191406 C 325.855469 214.394531 325.722656 214.597656 325.617188 214.796875 C 324.191406 217.421875 323.960938 219.160156 324.421875 223.089844 C 324.292969 223.03125 324.15625 222.992188 324.011719 222.976562 C 323.066406 222.859375 322.246094 223.617188 322.285156 224.566406 L 322.484375 229.523438 C 322.503906 229.984375 322.730469 230.410156 323.097656 230.6875 L 327.015625 233.648438 L 328.035156 234.417969 C 328.582031 234.835938 329.34375 234.835938 329.890625 234.421875 L 336.945312 229.101562 C 337.347656 228.796875 337.578125 228.3125 337.554688 227.808594 Z M 278.53125 333.144531 C 278.53125 333.148438 278.53125 333.148438 278.53125 333.148438 C 278.515625 329.890625 278.972656 325.519531 279.34375 322.515625 L 266.84375 322.515625 C 266.566406 326.003906 266.054688 328.355469 265.277344 330.320312 C 269.546875 335.949219 275.296875 334.796875 278.53125 333.144531 Z M 307.296875 107.605469 C 306.488281 107.535156 305.910156 109.285156 305.535156 111.03125 C 305.371094 110.933594 305.183594 110.875 304.972656 110.871094 C 304.972656 110.871094 304.164062 104.503906 305.726562 98.03125 C 304.347656 99.390625 299.316406 99.839844 295.679688 98.941406 C 291.234375 97.84375 288.652344 96.292969 285.726562 96.644531 C 283.902344 102.300781 283.839844 107.753906 283.839844 107.753906 L 283.972656 115.355469 C 284.03125 118.792969 285.734375 121.898438 288.351562 123.789062 L 288.289062 130.738281 C 288.609375 135.304688 292.808594 138.742188 297.667969 138.414062 C 302.53125 138.085938 305.816406 134.042969 305.5 129.472656 L 304.554688 116.933594 L 305.113281 115.222656 C 305.355469 115.8125 305.917969 116.175781 306.53125 116.023438 C 308.359375 115.558594 309.664062 114.066406 309.824219 112.195312 C 310.027344 109.796875 308.894531 107.738281 307.296875 107.605469 Z M 119.046875 116.605469 C 116.78125 116.605469 114.933594 114.367188 114.933594 111.613281 C 114.933594 111.027344 115.023438 110.46875 115.175781 109.945312 C 114.703125 109.707031 114.246094 109.714844 113.773438 109.976562 C 113.917969 110.492188 114.003906 111.039062 114.003906 111.613281 C 114.003906 114.367188 112.160156 116.605469 109.894531 116.605469 C 107.625 116.605469 105.78125 114.367188 105.78125 111.613281 C 105.78125 108.863281 107.625 106.625 109.894531 106.625 C 111.464844 106.625 112.832031 107.703125 113.523438 109.28125 C 114.152344 108.972656 114.796875 108.960938 115.425781 109.253906 C 116.121094 107.6875 117.480469 106.625 119.046875 106.625 C 119.460938 106.625 119.863281 106.699219 120.242188 106.839844 C 120.253906 105.492188 120.015625 104.183594 119.570312 102.96875 C 119.160156 102.933594 118.75 102.894531 118.335938 102.835938 C 114.5 102.292969 108.429688 100.277344 104.382812 97.835938 C 101.960938 101.847656 105.261719 109.910156 100.007812 111.621094 C 100.164062 109.753906 99.945312 107.539062 98.136719 107.097656 C 96.089844 106.59375 94.828125 108.097656 94.257812 110.371094 C 93.816406 112.136719 94.9375 114.019531 97.070312 115.167969 C 97.796875 115.558594 98.65625 115.4375 99.152344 114.972656 L 92.878906 130.339844 C 96.273438 131.488281 99.195312 133.636719 101.226562 136.441406 C 101.421875 136.558594 101.613281 136.683594 101.800781 136.820312 C 101.90625 136.898438 102.027344 136.996094 102.128906 137.078125 L 103.800781 138.453125 L 108.191406 127.371094 C 109.265625 127.550781 110.390625 127.542969 111.519531 127.308594 C 115.40625 126.496094 118.1875 123.304688 118.675781 119.585938 L 119.0625 116.601562 C 119.058594 116.601562 119.050781 116.605469 119.046875 116.605469 Z M 119.046875 107.347656 C 117.175781 107.347656 115.65625 109.261719 115.65625 111.613281 C 115.65625 113.96875 117.175781 115.882812 119.046875 115.882812 C 119.082031 115.882812 119.121094 115.878906 119.15625 115.875 L 120.15625 108.167969 C 120.179688 107.980469 120.195312 107.796875 120.210938 107.609375 C 119.847656 107.441406 119.457031 107.347656 119.046875 107.347656 Z M 109.894531 107.347656 C 108.023438 107.347656 106.503906 109.261719 106.503906 111.613281 C 106.503906 113.96875 108.023438 115.882812 109.894531 115.882812 C 111.761719 115.882812 113.28125 113.96875 113.28125 111.613281 C 113.28125 109.261719 111.761719 107.347656 109.894531 107.347656 Z M 109.894531 107.347656 " fill-opacity="1" fill-rule="evenodd"/></g><path fill="#000000" d="M 62.566406 336.367188 L 42.945312 336.367188 C 42.75 336.367188 42.59375 336.523438 42.59375 336.71875 C 42.59375 336.914062 42.75 337.074219 42.945312 337.074219 L 62.566406 337.074219 C 62.761719 337.074219 62.917969 336.914062 62.917969 336.71875 C 62.917969 336.523438 62.761719 336.367188 62.566406 336.367188 Z M 62.566406 336.367188 " fill-opacity="1" fill-rule="nonzero"/><path fill="#000000" d="M 137.421875 151.082031 L 140.175781 152.417969 C 140.222656 152.441406 140.277344 152.453125 140.328125 152.453125 C 140.460938 152.453125 140.585938 152.378906 140.648438 152.253906 C 140.734375 152.078125 140.660156 151.867188 140.484375 151.78125 L 137.730469 150.445312 C 137.554688 150.359375 137.34375 150.433594 137.257812 150.609375 C 137.171875 150.785156 137.246094 150.996094 137.421875 151.082031 Z M 137.421875 151.082031 " fill-opacity="1" fill-rule="nonzero"/><path fill="#000000" d="M 108.8125 336.367188 L 74.417969 336.367188 C 74.222656 336.367188 74.0625 336.523438 74.0625 336.71875 C 74.0625 336.914062 74.222656 337.074219 74.417969 337.074219 L 108.8125 337.074219 C 109.007812 337.074219 109.167969 336.914062 109.167969 336.71875 C 109.167969 336.523438 109.007812 336.367188 108.8125 336.367188 Z M 108.8125 336.367188 " fill-opacity="1" fill-rule="nonzero"/><path fill="#000000" d="M 50.917969 201.722656 L 51.617188 238.671875 C 51.691406 243.773438 50.839844 248.847656 49.085938 253.640625 C 41.746094 273.664062 43.125 305.886719 43.125 319.863281 L 57.289062 319.863281 L 72.683594 253.355469 L 74.53125 240.734375 C 74.539062 240.808594 74.542969 240.886719 74.550781 240.960938 L 79.589844 202.804688 C 79.601562 202.707031 79.644531 202.621094 79.71875 202.554688 L 85.960938 196.625 C 86.125 196.464844 86.394531 196.46875 86.554688 196.640625 C 86.714844 196.808594 86.710938 197.074219 86.539062 197.238281 L 80.40625 203.0625 L 74.761719 245.792969 C 74.722656 248.460938 74.421875 251.089844 73.847656 253.640625 C 69.332031 273.660156 73.695312 305.886719 75.671875 319.859375 L 89.832031 319.859375 L 95.933594 253.351562 L 94.507812 195.570312 L 94.507812 176.128906 C 94.332031 176.191406 94.152344 176.246094 93.964844 176.277344 C 84.648438 177.902344 74.652344 176.425781 67.132812 173.746094 L 64.914062 174.011719 C 64.839844 173.941406 64.777344 173.871094 64.703125 173.800781 C 60.195312 178.152344 50.917969 188.683594 50.917969 201.722656 Z M 50.917969 201.722656 " fill-opacity="1" fill-rule="nonzero"/><path fill="#000000" d="M 98.035156 153.28125 L 90.222656 139.875 C 90.121094 139.707031 89.90625 139.648438 89.738281 139.746094 C 89.570312 139.847656 89.511719 140.0625 89.609375 140.230469 L 97.425781 153.640625 C 97.488281 153.75 97.609375 153.8125 97.730469 153.8125 C 97.789062 153.8125 97.851562 153.800781 97.90625 153.765625 C 98.078125 153.667969 98.132812 153.453125 98.035156 153.28125 Z M 98.035156 153.28125 " fill-opacity="1" fill-rule="nonzero"/><path fill="#000000" d="M 326.003906 214.558594 C 326.035156 214.558594 326.070312 214.550781 326.105469 214.542969 L 327.527344 214.109375 C 327.714844 214.050781 327.820312 213.855469 327.761719 213.667969 C 327.707031 213.480469 327.511719 213.375 327.320312 213.429688 L 325.898438 213.867188 C 325.710938 213.921875 325.605469 214.121094 325.664062 214.308594 C 325.710938 214.460938 325.851562 214.558594 326.003906 214.558594 Z M 326.003906 214.558594 " fill-opacity="1" fill-rule="nonzero"/><path fill="#000000" d="M 320.410156 187.203125 C 320.414062 187.203125 320.417969 187.203125 320.421875 187.203125 C 320.617188 187.191406 320.769531 187.027344 320.761719 186.835938 L 320.222656 174.554688 L 323.925781 147.769531 C 323.953125 147.578125 323.816406 147.398438 323.625 147.371094 C 323.433594 147.347656 323.25 147.480469 323.226562 147.675781 L 319.519531 174.523438 L 320.054688 186.863281 C 320.0625 187.054688 320.21875 187.203125 320.410156 187.203125 Z M 320.410156 187.203125 " fill-opacity="1" fill-rule="nonzero"/><path fill="#000000" d="M 285.726562 96.644531 C 288.652344 96.292969 291.234375 97.839844 295.679688 98.941406 C 299.316406 99.839844 304.351562 99.390625 305.726562 98.03125 C 304.164062 104.503906 304.972656 110.871094 304.972656 110.871094 L 304.972656 110.867188 C 305.183594 110.871094 305.371094 110.933594 305.535156 111.03125 C 305.910156 109.285156 306.488281 107.535156 307.296875 107.601562 C 308.894531 107.738281 310.027344 109.796875 309.824219 112.195312 C 309.664062 114.0625 308.363281 115.558594 306.53125 116.023438 C 305.921875 116.175781 305.355469 115.8125 305.117188 115.222656 L 304.554688 116.933594 L 304.582031 117.285156 C 306.453125 116.957031 313.820312 115.230469 312.984375 108.539062 C 312.984375 108.539062 318.789062 101.882812 313.027344 96.695312 C 313.09375 90.679688 309.847656 87.757812 303.796875 87.464844 C 303.796875 87.464844 290.121094 86.300781 287.082031 86.117188 C 282.75 85.847656 282.574219 89.59375 283.859375 94.660156 C 283.933594 94.953125 284.042969 95.199219 284.167969 95.433594 C 283.394531 96.96875 282.886719 98.671875 282.738281 100.492188 C 282.542969 102.863281 282.960938 105.144531 283.863281 107.175781 C 283.929688 105.632812 284.253906 101.207031 285.726562 96.644531 Z M 285.726562 96.644531 " fill-opacity="1" fill-rule="nonzero"/><path fill="#000000" d="M 270.480469 171.371094 C 270.488281 171.371094 270.5 171.371094 270.511719 171.371094 C 270.707031 171.355469 270.851562 171.179688 270.832031 170.984375 L 268.6875 147.992188 C 268.667969 147.796875 268.507812 147.660156 268.300781 147.671875 C 268.105469 147.6875 267.964844 147.863281 267.980469 148.058594 L 270.128906 171.050781 C 270.144531 171.234375 270.296875 171.371094 270.480469 171.371094 Z M 270.480469 171.371094 " fill-opacity="1" fill-rule="nonzero"/><path fill="#000000" d="M 270.882812 213.347656 C 274.066406 213.347656 275.691406 210.695312 276.457031 208.730469 C 275.066406 208.550781 273.6875 208.355469 272.328125 208.136719 C 271.839844 208.058594 271.398438 207.855469 271.027344 207.566406 L 270.816406 213.363281 C 270.839844 213.359375 270.859375 213.347656 270.882812 213.347656 Z M 270.882812 213.347656 " fill-opacity="1" fill-rule="nonzero"/><path fill="#000000" d="M 137.996094 148.761719 L 140.917969 150.527344 C 140.976562 150.5625 141.039062 150.582031 141.101562 150.582031 C 141.222656 150.582031 141.339844 150.519531 141.40625 150.410156 C 141.507812 150.242188 141.453125 150.023438 141.285156 149.921875 L 138.363281 148.15625 C 138.195312 148.058594 137.976562 148.109375 137.875 148.277344 C 137.773438 148.445312 137.828125 148.660156 137.996094 148.761719 Z M 137.996094 148.761719 " fill-opacity="1" fill-rule="nonzero"/><g clip-path="url(#1424c21cdf)"><path fill="#000000" d="M 245.085938 345.082031 C 244.988281 345.839844 245.582031 346.515625 246.351562 346.515625 L 278.382812 346.515625 C 279.046875 346.515625 279.601562 346.003906 279.648438 345.339844 C 279.6875 344.800781 279.726562 344.085938 279.746094 343.265625 L 253.410156 343.265625 L 251.214844 339.839844 C 250.449219 340.214844 249.714844 340.550781 249.03125 340.847656 C 246.035156 342.144531 245.28125 343.640625 245.085938 345.082031 Z M 245.085938 345.082031 " fill-opacity="1" fill-rule="nonzero"/></g><path fill="#000000" d="M 265.277344 330.320312 C 262.789062 333.429688 256.269531 337.386719 251.214844 339.839844 L 253.410156 343.265625 L 279.746094 343.265625 C 279.8125 340.558594 279.652344 336.601562 278.53125 333.144531 C 275.296875 334.796875 269.546875 335.949219 265.277344 330.320312 Z M 265.277344 330.320312 " fill-opacity="1" fill-rule="nonzero"/><path fill="#000000" d="M 319.339844 293.632812 C 320.851562 282.300781 318.613281 265.644531 318.613281 265.644531 L 319.621094 214.191406 C 315.910156 214.1875 314.074219 211.125 313.238281 208.945312 C 313.527344 208.910156 313.808594 208.867188 314.09375 208.828125 C 314.875 210.78125 316.5 213.347656 319.628906 213.347656 C 319.632812 213.347656 319.636719 213.351562 319.640625 213.351562 L 319.75 207.707031 C 319.421875 207.925781 319.050781 208.085938 318.640625 208.15625 C 305.691406 210.355469 290.839844 210.527344 277.199219 208.828125 C 277.238281 208.832031 277.277344 208.839844 277.3125 208.84375 C 276.496094 211.027344 274.660156 214.191406 270.882812 214.191406 C 270.847656 214.191406 270.816406 214.179688 270.785156 214.171875 L 268.914062 265.09375 L 266.464844 322.515625 L 280.78125 322.515625 C 283.898438 312.179688 291.132812 286.691406 287.601562 268.378906 L 295.320312 216.09375 L 290.726562 215.804688 C 290.492188 215.789062 290.316406 215.589844 290.332031 215.359375 C 290.347656 215.125 290.539062 214.9375 290.777344 214.964844 L 297.285156 215.375 C 297.519531 215.386719 297.695312 215.589844 297.679688 215.820312 C 297.667969 216.039062 297.488281 216.207031 297.269531 216.214844 L 300.519531 322.515625 L 314.804688 322.515625 C 316.003906 315.398438 318.257812 301.742188 319.339844 293.632812 Z M 319.339844 293.632812 " fill-opacity="1" fill-rule="nonzero"/><path fill="#000000" d="M 332.003906 219.820312 C 331.816406 219.808594 331.636719 219.945312 331.621094 220.140625 L 331.222656 224.714844 L 328.667969 233.308594 C 328.609375 233.503906 328.457031 233.65625 328.261719 233.71875 C 328.070312 233.78125 327.878906 233.746094 327.726562 233.628906 C 327.152344 233.179688 326.824219 232.4375 326.742188 231.429688 C 326.523438 228.621094 326.667969 225.285156 326.667969 225.253906 C 326.675781 225.109375 326.589844 224.972656 326.457031 224.914062 C 326.414062 224.894531 325.34375 224.398438 324.894531 222.863281 C 324.839844 222.675781 324.644531 222.566406 324.453125 222.625 C 324.265625 222.675781 324.160156 222.875 324.214844 223.0625 C 324.632812 224.496094 325.535156 225.191406 325.953125 225.445312 C 325.925781 226.242188 325.847656 229.054688 326.039062 231.484375 C 326.132812 232.699219 326.554688 233.609375 327.292969 234.183594 C 327.519531 234.363281 327.796875 234.457031 328.082031 234.457031 C 328.214844 234.457031 328.347656 234.433594 328.476562 234.394531 C 328.894531 234.261719 329.222656 233.929688 329.347656 233.507812 L 331.914062 224.882812 C 331.921875 224.859375 331.925781 224.835938 331.929688 224.8125 L 332.324219 220.199219 C 332.339844 220.007812 332.199219 219.835938 332.003906 219.820312 Z M 332.003906 219.820312 " fill-opacity="1" fill-rule="nonzero"/><g clip-path="url(#3a1cf2f9e9)"><path fill="#000000" d="M 321 338.210938 C 321 338.210938 321 338.210938 321.003906 338.210938 C 320.925781 338.140625 320.847656 338.074219 320.773438 338.003906 C 320.132812 337.429688 319.480469 336.859375 318.832031 336.277344 C 318.683594 336.140625 318.53125 336.003906 318.382812 335.867188 C 318.222656 335.722656 318.066406 335.574219 317.90625 335.425781 C 317.746094 335.273438 317.589844 335.121094 317.4375 334.964844 C 317.292969 334.824219 317.152344 334.683594 317.015625 334.539062 C 316.855469 334.371094 316.703125 334.203125 316.546875 334.03125 C 316.421875 333.890625 316.292969 333.75 316.171875 333.605469 C 316.015625 333.417969 315.871094 333.226562 315.722656 333.03125 C 315.617188 332.894531 315.507812 332.757812 315.40625 332.613281 C 315.25 332.390625 315.109375 332.160156 314.96875 331.925781 C 314.890625 331.800781 314.804688 331.679688 314.730469 331.546875 C 314.527344 331.183594 314.34375 330.808594 314.179688 330.414062 C 314.179688 330.410156 314.175781 330.40625 314.171875 330.398438 C 314.105469 330.238281 314.050781 330.074219 313.992188 329.910156 C 313.203125 329.648438 312.414062 329.542969 311.628906 329.585938 C 311.230469 329.605469 310.832031 329.664062 310.4375 329.753906 C 308.476562 330.214844 306.542969 331.535156 304.695312 333.507812 C 303.574219 334.703125 302.53125 335.015625 301.648438 334.917969 C 301.371094 334.886719 301.109375 334.820312 300.867188 334.726562 C 300.855469 335.050781 300.839844 335.382812 300.824219 335.726562 C 300.820312 335.851562 300.816406 335.984375 300.808594 336.113281 C 300.800781 336.304688 300.792969 336.496094 300.789062 336.695312 C 300.78125 336.90625 300.773438 337.121094 300.765625 337.335938 C 300.757812 337.460938 300.753906 337.585938 300.75 337.714844 C 300.742188 337.972656 300.734375 338.234375 300.726562 338.5 C 300.722656 338.578125 300.722656 338.65625 300.71875 338.730469 C 300.664062 340.625 300.625 342.75 300.613281 345.234375 C 300.609375 345.9375 301.179688 346.511719 301.882812 346.511719 L 324.1875 346.511719 C 324.964844 346.511719 325.570312 345.820312 325.445312 345.054688 C 324.972656 342.167969 323.117188 340.136719 321 338.210938 Z M 321 338.210938 " fill-opacity="1" fill-rule="nonzero"/></g><path fill="#000000" d="M 76.878906 150.222656 C 76.714844 150.332031 76.667969 150.550781 76.777344 150.714844 L 84.226562 162.144531 C 84.292969 162.25 84.40625 162.304688 84.523438 162.304688 C 84.589844 162.304688 84.65625 162.289062 84.714844 162.25 C 84.878906 162.144531 84.925781 161.921875 84.816406 161.761719 L 77.367188 150.328125 C 77.261719 150.164062 77.042969 150.117188 76.878906 150.222656 Z M 76.878906 150.222656 " fill-opacity="1" fill-rule="nonzero"/><path fill="#000000" d="M 175.835938 198.910156 L 158.335938 198.910156 C 159.03125 197.609375 159.429688 196.121094 159.429688 194.542969 C 159.429688 189.425781 155.277344 185.28125 150.160156 185.28125 C 145.039062 185.28125 140.890625 189.425781 140.890625 194.542969 C 140.890625 196.121094 141.289062 197.609375 141.984375 198.910156 L 125.199219 198.910156 C 123.183594 198.910156 121.550781 200.542969 121.550781 202.554688 L 121.550781 253.167969 C 121.550781 255.179688 123.183594 256.8125 125.199219 256.8125 L 175.832031 256.8125 C 177.847656 256.8125 179.480469 255.179688 179.480469 253.167969 L 179.480469 202.554688 C 179.480469 200.542969 177.847656 198.910156 175.835938 198.910156 Z M 175.835938 198.910156 " fill-opacity="1" fill-rule="nonzero"/><path fill="#000000" d="M 123.828125 129.175781 C 122.457031 114.378906 125.605469 112 126.21875 101.851562 C 126.832031 91.699219 116.351562 82.753906 102.496094 85.746094 C 91.175781 87.804688 84.621094 87.453125 82.359375 100.378906 C 80.097656 113.300781 82.871094 114.949219 71.71875 125.074219 C 60.621094 135.148438 49.566406 159.683594 64.703125 173.804688 C 65.03125 173.484375 65.335938 173.195312 65.609375 172.945312 C 64.675781 172.128906 64.21875 170.847656 64.511719 169.574219 L 70.675781 142.851562 C 72.316406 135.023438 79.222656 129.414062 87.226562 129.414062 C 89.234375 129.414062 91.171875 129.757812 92.972656 130.378906 C 92.941406 130.367188 92.910156 130.355469 92.878906 130.34375 L 99.152344 114.972656 C 98.65625 115.441406 97.796875 115.5625 97.070312 115.167969 C 94.9375 114.019531 93.816406 112.140625 94.257812 110.371094 C 94.828125 108.101562 96.089844 106.59375 98.136719 107.097656 C 99.945312 107.542969 100.164062 109.753906 100.007812 111.621094 C 105.261719 109.914062 101.960938 101.847656 104.382812 97.839844 C 108.429688 100.277344 114.5 102.292969 118.335938 102.835938 C 118.75 102.894531 119.160156 102.9375 119.570312 102.96875 C 120.160156 104.582031 120.390625 106.347656 120.152344 108.167969 L 118.675781 119.585938 C 118.1875 123.304688 115.40625 126.5 111.519531 127.308594 C 110.390625 127.542969 109.265625 127.550781 108.191406 127.375 L 103.800781 138.453125 L 117.253906 148.90625 L 120.808594 146.734375 C 121.5 141.273438 124.464844 136.085938 123.828125 129.175781 Z M 123.828125 129.175781 " fill-opacity="1" fill-rule="nonzero"/><path fill="#000000" d="M 249.023438 142.441406 L 249.023438 92.148438 C 249.023438 90.148438 247.398438 88.527344 245.398438 88.527344 L 229.746094 88.527344 C 230.425781 89.808594 230.816406 91.265625 230.816406 92.820312 C 230.816406 97.878906 226.714844 101.980469 221.652344 101.980469 C 216.589844 101.980469 212.484375 97.878906 212.484375 92.820312 C 212.484375 91.265625 212.875 89.808594 213.558594 88.527344 L 195.082031 88.527344 C 193.078125 88.527344 191.457031 90.148438 191.457031 92.148438 L 191.457031 108.84375 C 192.773438 108.324219 194.238281 108.089844 195.777344 108.257812 C 200.226562 108.738281 203.730469 112.496094 203.886719 116.964844 C 204.070312 122.136719 199.929688 126.386719 194.796875 126.386719 C 193.617188 126.386719 192.492188 126.15625 191.457031 125.746094 L 191.457031 142.441406 C 191.457031 144.441406 193.078125 146.0625 195.082031 146.0625 L 245.398438 146.0625 C 247.398438 146.0625 249.023438 144.441406 249.023438 142.441406 Z M 249.023438 142.441406 " fill-opacity="1" fill-rule="nonzero"/><path fill="#000000" d="M 230.988281 152.449219 L 226.457031 152.449219 C 226.261719 152.449219 226.101562 152.609375 226.101562 152.804688 C 226.101562 153 226.261719 153.15625 226.457031 153.15625 L 230.988281 153.15625 C 231.183594 153.15625 231.34375 153 231.34375 152.804688 C 231.34375 152.609375 231.183594 152.449219 230.988281 152.449219 Z M 230.988281 152.449219 " fill-opacity="1" fill-rule="nonzero"/><path fill="#78a0ff" d="M 182.53125 142.742188 C 180.96875 142.742188 179.5 143.136719 178.214844 143.824219 L 178.214844 127.234375 C 178.214844 125.242188 176.597656 123.628906 174.605469 123.628906 L 142.332031 123.628906 C 141.816406 124.527344 140.675781 124.4375 140.25 123.628906 L 139.660156 123.628906 C 139.148438 124.847656 137.636719 124.746094 137.207031 123.628906 L 136.914062 123.628906 C 136.523438 124.996094 134.769531 125.007812 134.328125 123.628906 L 133.464844 123.628906 C 133.125 124.765625 131.535156 124.976562 130.898438 123.628906 L 124.539062 123.628906 C 122.546875 123.628906 120.929688 125.242188 120.929688 127.234375 L 120.929688 146.421875 L 122.804688 145.175781 C 122.890625 145.117188 122.980469 145.066406 123.070312 145.015625 C 123.660156 144.535156 124.359375 144.175781 125.121094 143.984375 C 129.207031 142.953125 133.996094 142.753906 136.140625 142.714844 L 136.132812 142.703125 C 136.402344 142.707031 136.664062 142.707031 136.917969 142.707031 C 137.144531 142.707031 137.277344 142.707031 137.277344 142.707031 C 144.40625 142.738281 144.335938 142.695312 146.609375 142.695312 C 148.734375 142.695312 147.609375 144.917969 145.839844 145.253906 C 144.300781 145.546875 140.90625 145.953125 139.285156 146.136719 L 140.753906 147.460938 C 141.441406 148.082031 141.660156 149.066406 141.308594 149.921875 L 139.308594 154.738281 C 139.136719 155.164062 138.746094 155.457031 138.292969 155.511719 L 135.847656 155.800781 C 135.480469 155.84375 135.117188 155.742188 134.828125 155.511719 L 133.40625 154.390625 C 131.402344 154.421875 129.382812 154.253906 127.8125 154.050781 L 120.933594 159.683594 L 120.933594 177.277344 C 120.933594 179.269531 122.546875 180.882812 124.539062 180.882812 L 140.480469 180.882812 C 140.054688 179.816406 139.8125 178.65625 139.8125 177.4375 C 139.8125 172.320312 143.960938 168.175781 149.082031 168.175781 C 154.199219 168.175781 158.351562 172.320312 158.351562 177.4375 C 158.351562 178.65625 158.109375 179.816406 157.679688 180.882812 L 174.609375 180.882812 C 176.601562 180.882812 178.214844 179.269531 178.214844 177.277344 L 178.214844 159.980469 C 179.503906 160.671875 180.972656 161.0625 182.535156 161.0625 C 187.597656 161.0625 191.699219 156.960938 191.699219 151.902344 C 191.695312 146.84375 187.59375 142.742188 182.53125 142.742188 Z M 182.53125 142.742188 " fill-opacity="1" fill-rule="nonzero"/><path fill="#ff7bac" d="M 118.953125 106.523438 C 117.394531 106.523438 116.046875 107.632812 115.375 109.253906 C 114.636719 108.808594 113.90625 109.039062 113.457031 109.339844 C 112.785156 107.726562 111.4375 106.621094 109.882812 106.621094 C 107.660156 106.621094 105.859375 108.878906 105.859375 111.660156 C 105.859375 114.441406 107.660156 116.699219 109.882812 116.699219 C 112.109375 116.699219 113.910156 114.441406 113.910156 111.660156 C 113.910156 111.09375 113.832031 110.550781 113.695312 110.042969 C 113.796875 109.949219 114.429688 109.429688 115.136719 109.957031 C 115.003906 110.460938 114.925781 111 114.925781 111.558594 C 114.925781 114.34375 116.726562 116.597656 118.953125 116.597656 C 121.175781 116.597656 122.976562 114.34375 122.976562 111.558594 C 122.976562 108.777344 121.175781 106.523438 118.953125 106.523438 Z M 109.882812 115.988281 C 108.054688 115.988281 106.566406 114.046875 106.566406 111.660156 C 106.566406 109.269531 108.054688 107.328125 109.882812 107.328125 C 111.714844 107.328125 113.203125 109.269531 113.203125 111.660156 C 113.203125 114.046875 111.714844 115.988281 109.882812 115.988281 Z M 118.953125 115.890625 C 117.121094 115.890625 115.632812 113.949219 115.632812 111.558594 C 115.632812 109.171875 117.121094 107.230469 118.953125 107.230469 C 120.78125 107.230469 122.269531 109.171875 122.269531 111.558594 C 122.269531 113.949219 120.78125 115.890625 118.953125 115.890625 Z M 118.953125 115.890625 " fill-opacity="1" fill-rule="nonzero"/></svg>