<svg xmlns="http://www.w3.org/2000/svg" xmlns:xlink="http://www.w3.org/1999/xlink" width="500" zoomAndPan="magnify" viewBox="0 0 375 374.999991" height="500" preserveAspectRatio="xMidYMid meet" version="1.0"><defs><clipPath id="14c7ce62f3"><path d="M 45 209 L 158 209 L 158 321.230469 L 45 321.230469 Z M 45 209 " clip-rule="nonzero"/></clipPath><clipPath id="9a3dc2d2db"><path d="M 200 209 L 312.707031 209 L 312.707031 321.230469 L 200 321.230469 Z M 200 209 " clip-rule="nonzero"/></clipPath><clipPath id="1603dafb23"><path d="M 214 53.480469 L 277 53.480469 L 277 116 L 214 116 Z M 214 53.480469 " clip-rule="nonzero"/></clipPath><clipPath id="429b2f44e3"><path d="M 163 53.480469 L 174 53.480469 L 174 64 L 163 64 Z M 163 53.480469 " clip-rule="nonzero"/></clipPath><clipPath id="6352cf07a5"><path d="M 181 53.480469 L 192 53.480469 L 192 64 L 181 64 Z M 181 53.480469 " clip-rule="nonzero"/></clipPath></defs><rect x="-37.5" width="450" fill="#ffffff" y="-37.499999" height="449.999989" fill-opacity="1"/><rect x="-37.5" width="450" fill="#ffffff" y="-37.499999" height="449.999989" fill-opacity="1"/><rect x="-37.5" width="450" fill="#f5f5ff" y="-37.499999" height="449.999989" fill-opacity="1"/><path fill="#78a0ff" d="M 272.230469 75.9375 L 254.441406 75.9375 L 254.441406 58.148438 L 236.648438 58.148438 L 236.648438 75.9375 L 218.859375 75.9375 L 218.859375 93.730469 L 236.648438 93.730469 L 236.648438 111.519531 L 254.441406 111.519531 L 254.441406 93.730469 L 272.230469 93.730469 Z M 272.230469 75.9375 " fill-opacity="1" fill-rule="nonzero"/><path fill="#78a0ff" d="M 145.105469 264.074219 C 145.097656 264.066406 128.984375 241.304688 128.984375 241.304688 C 127.425781 239.097656 124.890625 237.785156 122.183594 237.785156 C 115.992188 237.785156 111.964844 244.300781 114.734375 249.84375 L 121.011719 262.742188 L 102.324219 256.507812 L 89.878906 231.609375 L 86.71875 218.972656 C 85.957031 215.941406 83.242188 213.816406 80.117188 213.816406 C 75.914062 213.816406 72.71875 217.59375 73.40625 221.738281 L 76.332031 239.308594 L 64.628906 225.648438 C 61.859375 222.421875 57.125 221.769531 53.589844 224.125 C 49.664062 226.742188 48.664062 232.070312 51.363281 235.929688 L 76.953125 272.488281 C 77.363281 273.074219 77.839844 273.605469 78.378906 274.078125 C 84.25 279.214844 90.125 284.355469 95.996094 289.496094 C 102.296875 295.003906 113.722656 301.515625 113.046875 310.917969 C 112.816406 314.140625 112.460938 317.351562 112.117188 320.5625 L 152.144531 320.5625 C 151.183594 301.734375 156.925781 280.714844 145.105469 264.074219 Z M 145.105469 264.074219 " fill-opacity="1" fill-rule="nonzero"/><path fill="#78a0ff" d="M 304.074219 224.121094 C 300.535156 221.765625 295.800781 222.417969 293.035156 225.644531 L 281.328125 239.300781 L 284.253906 221.734375 C 284.949219 217.59375 281.75 213.816406 277.542969 213.816406 C 274.421875 213.816406 271.699219 215.941406 270.941406 218.972656 L 267.785156 231.609375 L 255.335938 256.507812 L 236.648438 262.742188 L 242.925781 249.84375 C 245.695312 244.304688 241.667969 237.785156 235.476562 237.785156 C 232.773438 237.785156 230.238281 239.097656 228.675781 241.304688 C 228.675781 241.304688 212.566406 264.070312 212.558594 264.074219 C 200.734375 280.714844 206.476562 301.734375 205.515625 320.5625 L 245.546875 320.5625 C 245.199219 317.351562 244.84375 314.140625 244.613281 310.917969 C 243.9375 301.515625 255.363281 295.003906 261.660156 289.496094 C 267.53125 284.355469 273.40625 279.214844 279.277344 274.078125 C 279.816406 273.605469 280.296875 273.074219 280.703125 272.488281 L 306.292969 235.929688 C 308.996094 232.066406 307.996094 226.738281 304.074219 224.121094 Z M 304.074219 224.121094 " fill-opacity="1" fill-rule="nonzero"/><path fill="#ff7bac" d="M 192.171875 98.175781 C 192.171875 99.054688 192.089844 99.921875 191.917969 100.78125 C 191.746094 101.640625 191.492188 102.472656 191.15625 103.285156 C 190.824219 104.09375 190.410156 104.863281 189.925781 105.589844 C 189.4375 106.320312 188.886719 106.992188 188.265625 107.613281 C 187.644531 108.230469 186.972656 108.785156 186.242188 109.273438 C 185.515625 109.757812 184.746094 110.167969 183.9375 110.503906 C 183.128906 110.839844 182.292969 111.09375 181.433594 111.265625 C 180.574219 111.433594 179.707031 111.519531 178.832031 111.519531 C 177.953125 111.519531 177.085938 111.433594 176.226562 111.265625 C 175.367188 111.09375 174.535156 110.839844 173.722656 110.503906 C 172.914062 110.167969 172.144531 109.757812 171.417969 109.273438 C 170.6875 108.785156 170.015625 108.230469 169.394531 107.613281 C 168.777344 106.992188 168.222656 106.320312 167.734375 105.589844 C 167.25 104.863281 166.839844 104.09375 166.503906 103.285156 C 166.167969 102.472656 165.914062 101.640625 165.742188 100.78125 C 165.574219 99.921875 165.488281 99.054688 165.488281 98.175781 C 165.488281 97.300781 165.574219 96.433594 165.742188 95.574219 C 165.914062 94.714844 166.167969 93.882812 166.503906 93.070312 C 166.839844 92.261719 167.25 91.492188 167.734375 90.765625 C 168.222656 90.035156 168.777344 89.363281 169.394531 88.742188 C 170.015625 88.125 170.6875 87.570312 171.417969 87.082031 C 172.144531 86.597656 172.914062 86.1875 173.722656 85.851562 C 174.535156 85.515625 175.367188 85.261719 176.226562 85.089844 C 177.085938 84.921875 177.953125 84.835938 178.832031 84.835938 C 179.707031 84.835938 180.574219 84.921875 181.433594 85.089844 C 182.292969 85.261719 183.128906 85.515625 183.9375 85.851562 C 184.746094 86.1875 185.515625 86.597656 186.242188 87.082031 C 186.972656 87.570312 187.644531 88.125 188.265625 88.742188 C 188.886719 89.363281 189.4375 90.035156 189.925781 90.765625 C 190.410156 91.492188 190.824219 92.261719 191.15625 93.070312 C 191.492188 93.882812 191.746094 94.714844 191.917969 95.574219 C 192.089844 96.433594 192.171875 97.300781 192.171875 98.175781 Z M 192.171875 98.175781 " fill-opacity="1" fill-rule="nonzero"/><path fill="#ff7bac" d="M 156.59375 129.3125 L 156.59375 155.996094 L 165.488281 160.445312 L 165.488281 200.472656 L 192.171875 200.472656 L 192.171875 160.445312 L 201.070312 155.996094 L 201.070312 129.3125 C 201.070312 119.488281 193.101562 111.519531 183.277344 111.519531 L 174.382812 111.519531 C 164.558594 111.519531 156.59375 119.488281 156.59375 129.3125 Z M 156.59375 129.3125 " fill-opacity="1" fill-rule="nonzero"/><path fill="#ff7bac" d="M 165.488281 193.230469 L 165.488281 200.472656 L 192.171875 200.472656 L 192.171875 170.6875 C 185.316406 180.253906 176.152344 188.019531 165.488281 193.230469 Z M 165.488281 193.230469 " fill-opacity="1" fill-rule="nonzero"/><g clip-path="url(#14c7ce62f3)"><path fill="#000000" d="M 148.714844 261.515625 C 147.851562 260.253906 144.734375 255.855469 132.621094 238.734375 C 130.226562 235.351562 126.332031 233.339844 122.191406 233.339844 C 117.726562 233.339844 113.667969 235.605469 111.324219 239.394531 C 108.976562 243.195312 108.765625 247.835938 110.882812 252.070312 L 112.75 255.300781 L 105.484375 252.875 L 94.074219 230.058594 L 91.035156 217.890625 C 89.773438 212.871094 85.289062 209.371094 80.117188 209.371094 C 76.804688 209.371094 73.679688 210.820312 71.535156 213.351562 C 69.390625 215.882812 68.476562 219.199219 69.023438 222.472656 L 69.324219 224.292969 L 68.003906 222.753906 C 63.773438 217.828125 56.515625 216.835938 51.121094 220.429688 C 48.21875 222.367188 46.261719 225.320312 45.621094 228.75 C 44.976562 232.175781 45.726562 235.632812 47.726562 238.484375 L 73.308594 275.03125 C 73.914062 275.902344 74.636719 276.707031 75.457031 277.433594 L 93.074219 292.847656 C 94.363281 293.976562 95.859375 295.148438 97.429688 296.371094 C 102.851562 300.609375 108.992188 305.40625 108.621094 310.609375 C 108.40625 313.570312 108.085938 316.523438 107.765625 319.472656 L 107.699219 320.089844 L 116.539062 321.046875 L 116.609375 320.433594 C 116.941406 317.371094 117.269531 314.3125 117.488281 311.246094 C 118.203125 301.320312 109.722656 294.6875 102.910156 289.367188 C 101.480469 288.25 100.109375 287.1875 98.933594 286.148438 L 81.324219 270.742188 C 81.046875 270.5 80.808594 270.230469 80.605469 269.9375 L 55.015625 233.378906 C 54.398438 232.5 54.171875 231.433594 54.367188 230.386719 C 54.5625 229.332031 55.164062 228.421875 56.058594 227.828125 C 57.710938 226.722656 59.953125 227.023438 61.257812 228.539062 L 81.59375 252.277344 C 83.054688 253.988281 84.941406 255.308594 87.203125 256.148438 L 99.171875 260.144531 L 99.242188 260.285156 L 99.386719 260.214844 L 119.46875 266.914062 L 120.414062 268.550781 C 120.800781 269.226562 121.011719 270 121.011719 270.777344 L 121.011719 276.085938 L 129.90625 276.085938 L 129.90625 270.777344 C 129.90625 268.445312 129.289062 266.128906 128.117188 264.097656 L 118.714844 247.855469 C 117.84375 246.105469 118.546875 244.628906 118.890625 244.074219 C 119.226562 243.523438 120.238281 242.234375 122.191406 242.234375 C 123.449219 242.234375 124.636719 242.847656 125.359375 243.871094 C 125.359375 243.871094 141.183594 266.234375 141.480469 266.65625 C 149.160156 277.464844 148.5625 290.566406 147.929688 304.4375 C 147.679688 309.824219 147.429688 315.390625 147.703125 320.789062 L 156.585938 320.335938 C 156.328125 315.363281 156.566406 310.25 156.816406 304.847656 C 157.484375 290.078125 158.183594 274.804688 148.734375 261.503906 Z M 90.167969 247.765625 C 89.46875 247.503906 88.84375 247.066406 88.355469 246.5 L 80.515625 237.351562 L 77.792969 221.007812 C 77.636719 220.070312 78.058594 219.40625 78.316406 219.097656 C 78.585938 218.785156 79.167969 218.265625 80.117188 218.265625 C 81.199219 218.265625 82.144531 219 82.410156 220.042969 L 85.566406 232.683594 C 85.648438 233 85.757812 233.308594 85.902344 233.597656 L 93.546875 248.890625 Z M 90.167969 247.765625 " fill-opacity="1" fill-rule="nonzero"/></g><g clip-path="url(#9a3dc2d2db)"><path fill="#000000" d="M 306.542969 220.421875 C 301.136719 216.820312 293.878906 217.824219 289.65625 222.75 L 288.335938 224.285156 L 288.640625 222.464844 C 289.183594 219.195312 288.265625 215.871094 286.125 213.339844 C 283.988281 210.8125 280.855469 209.371094 277.542969 209.371094 C 272.375 209.371094 267.886719 212.871094 266.628906 217.890625 L 263.585938 230.054688 L 252.175781 252.871094 L 244.902344 255.300781 L 246.90625 251.832031 C 248.898438 247.84375 248.691406 243.195312 246.34375 239.394531 C 243.996094 235.601562 239.9375 233.339844 235.476562 233.339844 C 231.335938 233.339844 227.4375 235.351562 225.042969 238.738281 C 212.925781 255.855469 209.8125 260.253906 208.949219 261.515625 L 208.933594 261.503906 C 199.480469 274.804688 200.175781 290.078125 200.851562 304.847656 C 201.101562 310.257812 201.332031 315.363281 201.078125 320.335938 L 209.964844 320.789062 C 210.238281 315.390625 209.988281 309.824219 209.738281 304.4375 C 209.101562 290.566406 208.511719 277.464844 216.203125 266.632812 C 216.480469 266.234375 232.304688 243.871094 232.300781 243.875 C 233.03125 242.847656 234.21875 242.234375 235.476562 242.234375 C 237.429688 242.234375 238.4375 243.523438 238.777344 244.074219 C 239.117188 244.628906 239.820312 246.105469 239.074219 247.613281 L 229.542969 264.101562 C 228.375 266.128906 227.753906 268.4375 227.753906 270.777344 L 227.753906 276.085938 L 236.648438 276.085938 L 236.648438 270.777344 C 236.648438 270 236.859375 269.226562 237.25 268.554688 L 238.199219 266.914062 L 258.28125 260.210938 L 258.421875 260.28125 L 258.492188 260.140625 L 270.613281 256.097656 C 272.726562 255.304688 274.605469 253.984375 276.058594 252.285156 L 296.410156 228.542969 C 297.707031 227.03125 299.941406 226.710938 301.609375 227.828125 C 302.503906 228.421875 303.101562 229.332031 303.296875 230.386719 C 303.5 231.433594 303.269531 232.5 302.648438 233.382812 L 277.058594 269.945312 C 276.855469 270.226562 276.617188 270.5 276.351562 270.734375 L 258.734375 286.148438 C 257.554688 287.179688 256.1875 288.25 254.757812 289.367188 C 247.941406 294.6875 239.460938 301.320312 240.175781 311.242188 C 240.394531 314.3125 240.722656 317.375 241.058594 320.433594 L 241.125 321.046875 L 249.964844 320.089844 L 249.898438 319.472656 C 249.578125 316.523438 249.253906 313.570312 249.046875 310.601562 C 248.671875 305.40625 254.816406 300.609375 260.238281 296.371094 C 261.804688 295.148438 263.296875 293.976562 264.589844 292.847656 L 282.214844 277.421875 C 283.035156 276.707031 283.753906 275.902344 284.351562 275.039062 L 309.9375 238.488281 C 311.9375 235.628906 312.683594 232.171875 312.042969 228.75 C 311.398438 225.308594 309.441406 222.355469 306.542969 220.421875 Z M 277.144531 237.34375 L 269.292969 246.507812 C 268.816406 247.066406 268.191406 247.507812 267.644531 247.714844 L 264.113281 248.890625 L 271.761719 233.597656 C 271.902344 233.308594 272.019531 233 272.09375 232.683594 L 275.25 220.046875 C 275.519531 219 276.460938 218.265625 277.542969 218.265625 C 278.492188 218.265625 279.078125 218.785156 279.339844 219.101562 C 279.601562 219.40625 280.019531 220.074219 279.863281 221.011719 Z M 277.144531 237.34375 " fill-opacity="1" fill-rule="nonzero"/></g><g clip-path="url(#1603dafb23)"><path fill="#000000" d="M 276.679688 93.730469 L 276.679688 75.9375 C 276.679688 73.480469 274.691406 71.492188 272.230469 71.492188 L 258.890625 71.492188 L 258.890625 58.148438 C 258.890625 55.6875 256.902344 53.699219 254.441406 53.699219 L 236.648438 53.699219 C 234.191406 53.699219 232.203125 55.6875 232.203125 58.148438 L 232.203125 71.492188 L 218.859375 71.492188 C 216.398438 71.492188 214.410156 73.480469 214.410156 75.9375 L 214.410156 93.730469 C 214.410156 96.191406 216.398438 98.175781 218.859375 98.175781 L 232.203125 98.175781 L 232.203125 111.519531 C 232.203125 113.980469 234.191406 115.96875 236.648438 115.96875 L 254.441406 115.96875 C 256.902344 115.96875 258.890625 113.980469 258.890625 111.519531 L 258.890625 98.175781 L 272.230469 98.175781 C 274.691406 98.175781 276.679688 96.191406 276.679688 93.730469 Z M 267.785156 89.28125 L 254.441406 89.28125 C 251.980469 89.28125 249.992188 91.269531 249.992188 93.730469 L 249.992188 107.074219 L 241.097656 107.074219 L 241.097656 93.730469 C 241.097656 91.269531 239.109375 89.28125 236.648438 89.28125 L 223.308594 89.28125 L 223.308594 80.386719 L 236.648438 80.386719 C 239.109375 80.386719 241.097656 78.398438 241.097656 75.9375 L 241.097656 62.597656 L 249.992188 62.597656 L 249.992188 75.9375 C 249.992188 78.398438 251.980469 80.386719 254.441406 80.386719 L 267.785156 80.386719 Z M 267.785156 89.28125 " fill-opacity="1" fill-rule="nonzero"/></g><path fill="#000000" d="M 217.257812 232.257812 L 213.59375 224.152344 C 211.039062 225.308594 208.398438 226.347656 205.734375 227.234375 L 208.566406 235.667969 C 211.507812 234.679688 214.433594 233.535156 217.257812 232.257812 Z M 217.257812 232.257812 " fill-opacity="1" fill-rule="nonzero"/><path fill="#000000" d="M 189.300781 230.957031 L 190.375 239.789062 C 193.445312 239.414062 196.542969 238.875 199.574219 238.191406 L 197.605469 229.511719 C 194.863281 230.140625 192.074219 230.625 189.300781 230.957031 Z M 189.300781 230.957031 " fill-opacity="1" fill-rule="nonzero"/><path fill="#000000" d="M 200.402344 56.199219 L 198.359375 64.863281 C 201.074219 65.503906 203.808594 66.296875 206.46875 67.214844 L 209.367188 58.800781 C 206.425781 57.789062 203.402344 56.917969 200.402344 56.199219 Z M 200.402344 56.199219 " fill-opacity="1" fill-rule="nonzero"/><path fill="#000000" d="M 258.613281 195.699219 L 251.019531 191.066406 C 249.558594 193.464844 247.960938 195.808594 246.269531 198.035156 L 253.359375 203.414062 C 255.226562 200.945312 256.992188 198.347656 258.613281 195.699219 Z M 258.613281 195.699219 " fill-opacity="1" fill-rule="nonzero"/><path fill="#000000" d="M 234.792969 210.421875 L 240.679688 217.085938 C 243.015625 215.019531 245.261719 212.824219 247.355469 210.566406 L 240.832031 204.523438 C 238.941406 206.566406 236.910156 208.550781 234.792969 210.421875 Z M 234.792969 210.421875 " fill-opacity="1" fill-rule="nonzero"/><path fill="#000000" d="M 156.539062 65.566406 L 154.203125 56.984375 C 151.214844 57.796875 148.226562 58.769531 145.328125 59.886719 L 148.523438 68.191406 C 151.140625 67.1875 153.839844 66.300781 156.539062 65.566406 Z M 156.539062 65.566406 " fill-opacity="1" fill-rule="nonzero"/><path fill="#000000" d="M 172.421875 231.367188 L 171.757812 240.238281 C 174.09375 240.410156 176.457031 240.503906 178.832031 240.503906 C 179.582031 240.503906 180.332031 240.496094 181.082031 240.476562 L 180.863281 231.582031 C 178.039062 231.65625 175.207031 231.574219 172.421875 231.367188 Z M 172.421875 231.367188 " fill-opacity="1" fill-rule="nonzero"/><path fill="#000000" d="M 266.679688 178.886719 L 258.316406 175.859375 C 257.363281 178.488281 256.265625 181.109375 255.050781 183.644531 L 263.070312 187.492188 C 264.414062 184.695312 265.632812 181.796875 266.679688 178.886719 Z M 266.679688 178.886719 " fill-opacity="1" fill-rule="nonzero"/><path fill="#000000" d="M 153.394531 237.003906 C 156.390625 237.84375 159.453125 238.546875 162.5 239.085938 L 164.039062 230.316406 C 161.289062 229.835938 158.523438 229.203125 155.808594 228.4375 Z M 153.394531 237.003906 " fill-opacity="1" fill-rule="nonzero"/><path fill="#000000" d="M 119.664062 207.433594 C 117.683594 205.488281 115.75 203.402344 113.921875 201.226562 L 107.113281 206.941406 C 109.117188 209.339844 111.25 211.640625 113.4375 213.785156 Z M 119.664062 207.433594 " fill-opacity="1" fill-rule="nonzero"/><path fill="#000000" d="M 85.429688 146.683594 L 94.324219 146.71875 C 94.339844 143.910156 94.488281 141.066406 94.777344 138.285156 L 85.925781 137.375 C 85.613281 140.449219 85.441406 143.578125 85.429688 146.683594 Z M 85.429688 146.683594 " fill-opacity="1" fill-rule="nonzero"/><path fill="#000000" d="M 114.429688 92.378906 L 107.644531 86.628906 C 105.640625 88.988281 103.730469 91.480469 101.96875 94.023438 L 109.285156 99.089844 C 110.878906 96.78125 112.605469 94.527344 114.429688 92.378906 Z M 114.429688 92.378906 " fill-opacity="1" fill-rule="nonzero"/><path fill="#000000" d="M 147.816406 225.742188 C 145.214844 224.714844 142.625 223.535156 140.125 222.25 L 136.054688 230.152344 C 138.816406 231.578125 141.675781 232.875 144.542969 234.007812 Z M 147.816406 225.742188 " fill-opacity="1" fill-rule="nonzero"/><g clip-path="url(#429b2f44e3)"><path fill="#000000" d="M 164.789062 63.757812 C 167.539062 63.292969 170.359375 62.964844 173.171875 62.78125 L 172.589844 53.90625 C 169.480469 54.109375 166.359375 54.46875 163.3125 54.980469 Z M 164.789062 63.757812 " fill-opacity="1" fill-rule="nonzero"/></g><path fill="#000000" d="M 92.9375 110.351562 L 101.113281 113.851562 C 102.226562 111.253906 103.472656 108.699219 104.820312 106.273438 L 97.039062 101.960938 C 95.546875 104.652344 94.167969 107.476562 92.9375 110.351562 Z M 92.9375 110.351562 " fill-opacity="1" fill-rule="nonzero"/><path fill="#000000" d="M 271.160156 132.90625 C 270.691406 129.828125 270.0625 126.746094 269.292969 123.757812 L 260.671875 125.972656 C 261.371094 128.675781 261.941406 131.460938 262.367188 134.25 Z M 271.160156 132.90625 " fill-opacity="1" fill-rule="nonzero"/><path fill="#000000" d="M 272.230469 147.101562 C 272.230469 145.453125 272.191406 143.816406 272.105469 142.1875 L 263.222656 142.65625 C 263.296875 144.125 263.335938 145.609375 263.335938 147.101562 C 263.335938 148.445312 263.300781 149.78125 263.242188 151.101562 L 272.128906 151.519531 C 272.195312 150.054688 272.230469 148.582031 272.230469 147.101562 Z M 272.230469 147.101562 " fill-opacity="1" fill-rule="nonzero"/><g clip-path="url(#6352cf07a5)"><path fill="#000000" d="M 181.628906 62.640625 C 184.453125 62.734375 187.28125 62.964844 190.046875 63.332031 L 191.222656 54.515625 C 188.160156 54.105469 185.035156 53.851562 181.917969 53.753906 Z M 181.628906 62.640625 " fill-opacity="1" fill-rule="nonzero"/></g><path fill="#000000" d="M 87.355469 128.144531 L 96.066406 129.941406 C 96.632812 127.210938 97.34375 124.460938 98.183594 121.765625 L 89.699219 119.113281 C 88.765625 122.089844 87.976562 125.128906 87.355469 128.144531 Z M 87.355469 128.144531 " fill-opacity="1" fill-rule="nonzero"/><path fill="#000000" d="M 126.578125 80.675781 L 121.074219 73.691406 C 118.636719 75.609375 116.269531 77.675781 114.042969 79.828125 L 120.210938 86.226562 C 122.230469 84.28125 124.375 82.414062 126.578125 80.675781 Z M 126.578125 80.675781 " fill-opacity="1" fill-rule="nonzero"/><path fill="#000000" d="M 132.824219 218.003906 C 130.496094 216.484375 128.1875 214.816406 125.964844 213.042969 L 120.414062 219.992188 C 122.859375 221.941406 125.402344 223.785156 127.96875 225.457031 Z M 132.824219 218.003906 " fill-opacity="1" fill-rule="nonzero"/><path fill="#000000" d="M 221.101562 220.292969 L 225.558594 227.988281 C 228.246094 226.429688 230.878906 224.730469 233.390625 222.917969 L 228.195312 215.699219 C 225.917969 217.339844 223.53125 218.886719 221.101562 220.292969 Z M 221.101562 220.292969 " fill-opacity="1" fill-rule="nonzero"/><path fill="#000000" d="M 140.804688 71.613281 L 136.792969 63.671875 C 134.019531 65.074219 131.296875 66.625 128.683594 68.292969 L 133.46875 75.792969 C 135.832031 74.289062 138.300781 72.878906 140.804688 71.613281 Z M 140.804688 71.613281 " fill-opacity="1" fill-rule="nonzero"/><path fill="#000000" d="M 108.851562 194.488281 C 107.277344 192.164062 105.800781 189.738281 104.460938 187.265625 L 96.640625 191.503906 C 98.117188 194.230469 99.75 196.910156 101.484375 199.472656 Z M 108.851562 194.488281 " fill-opacity="1" fill-rule="nonzero"/><path fill="#000000" d="M 271.230469 160.804688 L 262.429688 159.511719 C 262.023438 162.265625 261.46875 165.054688 260.789062 167.796875 L 269.410156 169.949219 C 270.175781 166.925781 270.785156 163.851562 271.230469 160.804688 Z M 271.230469 160.804688 " fill-opacity="1" fill-rule="nonzero"/><path fill="#000000" d="M 100.824219 179.648438 C 99.734375 177.042969 98.773438 174.375 97.96875 171.71875 L 89.453125 174.289062 C 90.34375 177.238281 91.40625 180.195312 92.613281 183.082031 Z M 100.824219 179.648438 " fill-opacity="1" fill-rule="nonzero"/><path fill="#000000" d="M 95.917969 163.519531 C 95.371094 160.757812 94.960938 157.945312 94.707031 155.171875 L 85.847656 155.996094 C 86.136719 159.074219 86.589844 162.1875 87.191406 165.238281 Z M 95.917969 163.519531 " fill-opacity="1" fill-rule="nonzero"/><path fill="#000000" d="M 196.621094 200.472656 L 196.621094 163.195312 L 203.058594 159.972656 C 204.566406 159.222656 205.515625 157.683594 205.515625 155.996094 L 205.515625 129.3125 C 205.515625 120.417969 200.234375 112.78125 192.667969 109.226562 C 195.105469 106.179688 196.621094 102.371094 196.621094 98.175781 C 196.621094 88.367188 188.640625 80.386719 178.832031 80.386719 C 169.019531 80.386719 161.039062 88.367188 161.039062 98.175781 C 161.039062 102.371094 162.554688 106.179688 164.992188 109.226562 C 157.429688 112.78125 152.144531 120.417969 152.144531 129.3125 L 152.144531 155.996094 C 152.144531 157.683594 153.097656 159.222656 154.605469 159.976562 L 161.039062 163.195312 L 161.039062 200.472656 C 161.039062 202.933594 163.027344 204.921875 165.488281 204.921875 L 192.171875 204.921875 C 194.632812 204.921875 196.621094 202.933594 196.621094 200.472656 Z M 178.832031 89.28125 C 183.738281 89.28125 187.726562 93.273438 187.726562 98.175781 C 187.726562 103.082031 183.738281 107.074219 178.832031 107.074219 C 173.925781 107.074219 169.933594 103.082031 169.933594 98.175781 C 169.933594 93.273438 173.925781 89.28125 178.832031 89.28125 Z M 187.726562 160.445312 L 187.726562 196.027344 L 169.933594 196.027344 L 169.933594 160.445312 C 169.933594 158.757812 168.984375 157.21875 167.476562 156.464844 L 161.039062 153.25 L 161.039062 129.3125 C 161.039062 121.953125 167.027344 115.96875 174.382812 115.96875 L 183.277344 115.96875 C 190.632812 115.96875 196.621094 121.953125 196.621094 129.3125 L 196.621094 153.25 L 190.183594 156.46875 C 188.679688 157.21875 187.726562 158.757812 187.726562 160.445312 Z M 187.726562 160.445312 " fill-opacity="1" fill-rule="nonzero"/></svg>