<svg xmlns="http://www.w3.org/2000/svg" xmlns:xlink="http://www.w3.org/1999/xlink" width="500" zoomAndPan="magnify" viewBox="0 0 375 374.999991" height="500" preserveAspectRatio="xMidYMid meet" version="1.0"><defs><clipPath id="1bd732f9ef"><path d="M 10 102 L 365.726562 102 L 365.726562 288 L 10 288 Z M 10 102 " clip-rule="nonzero"/></clipPath></defs><rect x="-37.5" width="450" fill="#ffffff" y="-37.499999" height="449.999989" fill-opacity="1"/><rect x="-37.5" width="450" fill="#ffffff" y="-37.499999" height="449.999989" fill-opacity="1"/><g clip-path="url(#1bd732f9ef)"><path fill="#78a0ff" d="M 363.269531 185.859375 C 332.621094 134.9375 263.898438 102.035156 188.195312 102.035156 C 112.492188 102.035156 43.769531 134.9375 13.121094 185.859375 C 9.832031 191.316406 9.84375 198.164062 13.140625 203.625 C 43.925781 254.453125 112.636719 287.292969 188.195312 287.292969 C 263.75 287.292969 332.464844 254.453125 363.246094 203.625 C 366.546875 198.164062 366.554688 191.316406 363.269531 185.859375 Z M 246.4375 194.664062 C 246.4375 226.785156 220.308594 252.921875 188.195312 252.921875 C 156.082031 252.921875 129.953125 226.785156 129.953125 194.664062 C 129.953125 162.539062 156.082031 136.40625 188.195312 136.40625 C 220.308594 136.40625 246.4375 162.539062 246.4375 194.664062 Z M 48.589844 194.695312 C 62.046875 176.964844 81.996094 162.492188 105.890625 152.394531 C 99.351562 165.082031 95.589844 179.429688 95.589844 194.664062 C 95.589844 209.886719 99.347656 224.222656 105.878906 236.90625 C 82.023438 226.820312 62.078125 212.382812 48.589844 194.695312 Z M 270.507812 236.90625 C 277.039062 224.222656 280.796875 209.886719 280.796875 194.664062 C 280.796875 179.429688 277.035156 165.082031 270.496094 152.394531 C 294.390625 162.492188 314.34375 176.964844 327.796875 194.695312 C 314.308594 212.382812 294.363281 226.820312 270.507812 236.90625 Z M 270.507812 236.90625 " fill-opacity="1" fill-rule="nonzero"/></g></svg>